<mxfile host="65bd71144e">
    <diagram id="2hwsozGbae6w4rWskjHL" name="Page-1">
        <mxGraphModel dx="2045" dy="624" grid="1" gridSize="10" guides="1" tooltips="1" connect="1" arrows="1" fold="1" page="1" pageScale="1" pageWidth="850" pageHeight="1100" background="#333333" math="0" shadow="0">
            <root>
                <mxCell id="0"/>
                <mxCell id="1" parent="0"/>
                <mxCell id="46" value="" style="rounded=0;whiteSpace=wrap;html=1;labelBackgroundColor=none;" vertex="1" parent="1">
                    <mxGeometry x="-120" y="66.72" width="1220" height="673.28" as="geometry"/>
                </mxCell>
                <mxCell id="44" value="" style="rounded=1;whiteSpace=wrap;html=1;labelBackgroundColor=none;fontColor=#B3B3B3;fillColor=none;" vertex="1" parent="1">
                    <mxGeometry x="180" y="110" width="740" height="570" as="geometry"/>
                </mxCell>
                <mxCell id="26" value="" style="rounded=1;whiteSpace=wrap;html=1;labelBackgroundColor=none;fontColor=#B3B3B3;fillColor=none;" vertex="1" parent="1">
                    <mxGeometry x="588" y="170" width="286" height="290" as="geometry"/>
                </mxCell>
                <mxCell id="25" value="" style="rounded=1;whiteSpace=wrap;html=1;labelBackgroundColor=none;fontColor=#B3B3B3;fillColor=none;" vertex="1" parent="1">
                    <mxGeometry x="220" y="170" width="260" height="290" as="geometry"/>
                </mxCell>
                <mxCell id="2" value="Virtual&#10;Private Cloud" style="sketch=0;html=1;fillColor=#5184F3;strokeColor=none;verticalAlign=top;labelPosition=center;verticalLabelPosition=bottom;align=center;spacingTop=-6;fontSize=11;fontStyle=1;fontColor=#999999;shape=mxgraph.gcp2.hexIcon;prIcon=virtual_private_cloud" vertex="1" parent="1">
                    <mxGeometry x="190" y="140" width="66" height="58.5" as="geometry"/>
                </mxCell>
                <mxCell id="3" value="Virtual&#10;Private Cloud" style="sketch=0;html=1;fillColor=#5184F3;strokeColor=none;verticalAlign=top;labelPosition=center;verticalLabelPosition=bottom;align=center;spacingTop=-6;fontSize=11;fontStyle=1;fontColor=#999999;shape=mxgraph.gcp2.hexIcon;prIcon=virtual_private_cloud" vertex="1" parent="1">
                    <mxGeometry x="580" y="151.5" width="66" height="58.5" as="geometry"/>
                </mxCell>
                <mxCell id="13" style="edgeStyle=none;html=1;exitX=0.825;exitY=0.5;exitDx=0;exitDy=0;exitPerimeter=0;entryX=0.175;entryY=0.5;entryDx=0;entryDy=0;entryPerimeter=0;startArrow=classic;startFill=1;" edge="1" parent="1" source="4" target="5">
                    <mxGeometry relative="1" as="geometry"/>
                </mxCell>
                <mxCell id="4" value="Ingress LB" style="sketch=0;html=1;fillColor=#5184F3;strokeColor=none;verticalAlign=top;labelPosition=center;verticalLabelPosition=bottom;align=center;spacingTop=-6;fontSize=11;fontStyle=1;fontColor=#999999;shape=mxgraph.gcp2.hexIcon;prIcon=cloud_load_balancing" vertex="1" parent="1">
                    <mxGeometry x="256" y="290" width="66" height="58.5" as="geometry"/>
                </mxCell>
                <mxCell id="14" style="edgeStyle=none;html=1;exitX=0.825;exitY=0.5;exitDx=0;exitDy=0;exitPerimeter=0;entryX=0.175;entryY=0.5;entryDx=0;entryDy=0;entryPerimeter=0;startArrow=classic;startFill=1;" edge="1" parent="1" source="5" target="9">
                    <mxGeometry relative="1" as="geometry">
                        <Array as="points">
                            <mxPoint x="440" y="320"/>
                        </Array>
                    </mxGeometry>
                </mxCell>
                <mxCell id="5" value="MIG VM&lt;br&gt;&amp;nbsp;" style="sketch=0;html=1;fillColor=#5184F3;strokeColor=none;verticalAlign=top;labelPosition=center;verticalLabelPosition=bottom;align=center;spacingTop=-6;fontSize=11;fontStyle=1;fontColor=#999999;shape=mxgraph.gcp2.hexIcon;prIcon=compute_engine" vertex="1" parent="1">
                    <mxGeometry x="338" y="290" width="66" height="58.5" as="geometry"/>
                </mxCell>
                <mxCell id="24" style="edgeStyle=none;html=1;exitX=0.175;exitY=0.5;exitDx=0;exitDy=0;exitPerimeter=0;entryX=1.014;entryY=0.728;entryDx=0;entryDy=0;entryPerimeter=0;fontColor=#B3B3B3;startArrow=classic;startFill=1;" edge="1" parent="1" source="7" target="21">
                    <mxGeometry relative="1" as="geometry"/>
                </mxCell>
                <mxCell id="16" style="edgeStyle=none;html=1;exitX=1;exitY=0.5;exitDx=0;exitDy=0;entryX=0.175;entryY=0.5;entryDx=0;entryDy=0;entryPerimeter=0;startArrow=classic;startFill=1;" edge="1" parent="1" source="8" target="10">
                    <mxGeometry relative="1" as="geometry"/>
                </mxCell>
                <mxCell id="20" style="edgeStyle=none;html=1;exitX=0;exitY=0.5;exitDx=0;exitDy=0;startArrow=classic;startFill=1;entryX=0.825;entryY=0.5;entryDx=0;entryDy=0;entryPerimeter=0;" edge="1" parent="1" source="8" target="9">
                    <mxGeometry relative="1" as="geometry">
                        <mxPoint x="640" y="320.36363636363626" as="targetPoint"/>
                    </mxGeometry>
                </mxCell>
                <mxCell id="8" value="Apigee Service" style="editableCssRules=.*;shape=image;verticalLabelPosition=bottom;labelBackgroundColor=none;verticalAlign=top;aspect=fixed;imageAspect=0;image=data:image/svg+xml,PHN2ZyB4bWxucz0iaHR0cDovL3d3dy53My5vcmcvMjAwMC9zdmciIHhtbG5zOnY9Imh0dHBzOi8vdmVjdGEuaW8vbmFubyIgd2lkdGg9IjIwLjE4MDIzMTA5NDM2MDM1IiBoZWlnaHQ9IjIwLjE4MDIwODIwNjE3Njc1OCIgdmlld0JveD0iLTAuMDAwMTE1MTY1MTIzMTMzOTIwMTMgLTAuMDAwMTAzMzQ0NDkzMjU0NTUzNTMgMjAuMTgwMjMxMDk0MzYwMzUgMjAuMTgwMjA4MjA2MTc2NzU4Ij4mI3hhOwk8c3R5bGUgdHlwZT0idGV4dC9jc3MiPiYjeGE7CS5zdDB7ZmlsbDojNjY5ZGY2O2ZpbGwtcnVsZTpldmVub2RkfSYjeGE7CS5zdDF7ZmlsbC1ydWxlOmV2ZW5vZGQ7ZmlsbDojNDI4NWY0fSYjeGE7CTwvc3R5bGU+JiN4YTsJPHBhdGggY2xhc3M9InN0MCIgZD0iTTMuMjkgMTAuMDlsMS4zMi0xLjMyLTEuNzktMS43OWEyLjk0IDIuOTQgMCAwIDEgMi4wOC01IDIuOTIgMi45MiAwIDAgMSAyLjA3Ljg2bDEuOCAxLjc5IDEuMzItMS4zNEw4LjMgMS41YTQuODEgNC44MSAwIDEgMC02LjggNi44em0xMy42IDBsLTEuMzIgMS4zMiAxLjc5IDEuOGEyLjk0IDIuOTQgMCAwIDEtNC4xNiA0LjE1bC0xLjc5LTEuNzktMS4zMiAxLjMyIDEuNzkgMS43OWE0LjgxIDQuODEgMCAxIDAgNi44LTYuOHoiLz4mI3hhOwk8cGF0aCBjbGFzcz0ic3QxIiBkPSJNNi45OCAxNy4zNmEyLjk0IDIuOTQgMCAxIDEtNC4xNi00LjE2bDEuNzktMS43OSA0LjE2IDQuMTZ6bTYuMjMtMTQuNTRhMi45MyAyLjkzIDAgMCAxIDUgMi4wOCAzIDMgMCAwIDEtLjg2IDIuMDhsLTEuNzkgMS43OS00LjE1LTQuMTZ6bS0zLjEyIDEwLjQ2YTMuMiAzLjIgMCAwIDEtMy4xOS0zLjE5aDBhMy4yMSAzLjIxIDAgMCAxIDMuMTktMy4xOWgwYTMuMjEgMy4yMSAwIDAgMSAzLjE5IDMuMTloMGEzLjIgMy4yIDAgMCAxLTMuMTkgMy4xOXptNi44LTMuMTlsMS43OS0xLjc5QTQuODEgNC44MSAwIDAgMCAxNi41NzQuMTUzIDQuODEgNC44MSAwIDAgMCAxMS44OCAxLjVsLTEuNzkgMS43OS02LjggNi44LTEuNzkgMS43OWE0LjgxIDQuODEgMCAwIDAgMi4xMDYgOC4xNDdBNC44MSA0LjgxIDAgMCAwIDguMyAxOC42OGwxLjc5LTEuNzl6Ii8+JiN4YTs8L3N2Zz4=;" vertex="1" parent="1">
                    <mxGeometry x="716" y="310" width="20" height="20" as="geometry"/>
                </mxCell>
                <mxCell id="9" value="Ingress L4 LB" style="sketch=0;html=1;fillColor=#5184F3;strokeColor=none;verticalAlign=top;labelPosition=center;verticalLabelPosition=bottom;align=center;spacingTop=-6;fontSize=11;fontStyle=1;fontColor=#999999;shape=mxgraph.gcp2.hexIcon;prIcon=cloud_load_balancing" vertex="1" parent="1">
                    <mxGeometry x="610" y="290.75" width="66" height="58.5" as="geometry"/>
                </mxCell>
                <mxCell id="40" style="edgeStyle=none;html=1;exitX=0.825;exitY=0.5;exitDx=0;exitDy=0;exitPerimeter=0;entryX=0.16;entryY=0.55;entryDx=0;entryDy=0;entryPerimeter=0;fontColor=#B3B3B3;startArrow=classic;startFill=1;" edge="1" parent="1" source="10" target="39">
                    <mxGeometry relative="1" as="geometry"/>
                </mxCell>
                <mxCell id="10" value="Egress LB" style="sketch=0;html=1;fillColor=#5184F3;strokeColor=none;verticalAlign=top;labelPosition=center;verticalLabelPosition=bottom;align=center;spacingTop=-6;fontSize=11;fontStyle=1;fontColor=#999999;shape=mxgraph.gcp2.hexIcon;prIcon=cloud_load_balancing" vertex="1" parent="1">
                    <mxGeometry x="770" y="290" width="66" height="58.5" as="geometry"/>
                </mxCell>
                <mxCell id="21" value="" style="html=1;verticalLabelPosition=bottom;align=center;labelBackgroundColor=#ffffff;verticalAlign=top;strokeWidth=2;strokeColor=#0080F0;shadow=0;dashed=0;shape=mxgraph.ios7.icons.cloud;fillColor=none;" vertex="1" parent="1">
                    <mxGeometry x="20" y="508.25" width="140" height="81.75" as="geometry"/>
                </mxCell>
                <mxCell id="27" value="Customer Google Project" style="text;html=1;align=center;verticalAlign=middle;resizable=0;points=[];autosize=1;strokeColor=none;fillColor=none;fontColor=#B3B3B3;" vertex="1" parent="1">
                    <mxGeometry x="275" y="178.5" width="150" height="20" as="geometry"/>
                </mxCell>
                <mxCell id="28" value="Apigee X Runtime Google Project&amp;nbsp;" style="text;html=1;align=center;verticalAlign=middle;resizable=0;points=[];autosize=1;strokeColor=none;fillColor=none;fontColor=#B3B3B3;" vertex="1" parent="1">
                    <mxGeometry x="626" y="178.5" width="200" height="20" as="geometry"/>
                </mxCell>
                <mxCell id="29" value="elysautus.io" style="text;html=1;align=center;verticalAlign=middle;resizable=0;points=[];autosize=1;strokeColor=none;fillColor=none;fontColor=#B3B3B3;" vertex="1" parent="1">
                    <mxGeometry x="290" y="140" width="80" height="20" as="geometry"/>
                </mxCell>
                <mxCell id="30" value="Apigee Org&amp;nbsp;" style="text;html=1;align=center;verticalAlign=middle;resizable=0;points=[];autosize=1;strokeColor=none;fillColor=none;fontColor=#B3B3B3;" vertex="1" parent="1">
                    <mxGeometry x="680" y="140" width="80" height="20" as="geometry"/>
                </mxCell>
                <mxCell id="33" style="edgeStyle=none;html=1;exitX=0.875;exitY=0.5;exitDx=0;exitDy=0;exitPerimeter=0;entryX=0.175;entryY=0.5;entryDx=0;entryDy=0;entryPerimeter=0;fontColor=#B3B3B3;startArrow=classic;startFill=1;" edge="1" parent="1" source="32" target="4">
                    <mxGeometry relative="1" as="geometry"/>
                </mxCell>
                <mxCell id="37" style="edgeStyle=none;html=1;exitX=0.55;exitY=0.95;exitDx=0;exitDy=0;exitPerimeter=0;entryX=0.544;entryY=0.053;entryDx=0;entryDy=0;entryPerimeter=0;fontColor=#B3B3B3;startArrow=classic;startFill=1;" edge="1" parent="1" source="32" target="21">
                    <mxGeometry relative="1" as="geometry"/>
                </mxCell>
                <mxCell id="38" style="edgeStyle=none;html=1;exitX=0.16;exitY=0.55;exitDx=0;exitDy=0;exitPerimeter=0;entryX=1;entryY=0.5;entryDx=0;entryDy=0;fontColor=#B3B3B3;startArrow=classic;startFill=1;" edge="1" parent="1" source="32" target="36">
                    <mxGeometry relative="1" as="geometry"/>
                </mxCell>
                <mxCell id="32" value="Regular Internet" style="ellipse;shape=cloud;whiteSpace=wrap;html=1;labelBackgroundColor=none;fontColor=#B3B3B3;fillColor=none;" vertex="1" parent="1">
                    <mxGeometry x="30" y="280" width="120" height="80" as="geometry"/>
                </mxCell>
                <mxCell id="35" value="Strapi - The VM here is to intentionally replicate an On-Prem server using Cloudflare Tunnel to allow the Strapi servers be accessible over the internet" style="text;html=1;align=center;verticalAlign=middle;resizable=0;points=[];autosize=1;strokeColor=none;fillColor=none;fontColor=#B3B3B3;" vertex="1" parent="1">
                    <mxGeometry x="135" y="700" width="810" height="20" as="geometry"/>
                </mxCell>
                <mxCell id="36" value="Customer" style="image;html=1;image=img/lib/clip_art/computers/Laptop_128x128.png;labelBackgroundColor=none;fontColor=#B3B3B3;flipH=1;" vertex="1" parent="1">
                    <mxGeometry x="-80" y="280" width="80" height="80" as="geometry"/>
                </mxCell>
                <mxCell id="54" style="edgeStyle=none;html=1;exitX=0.55;exitY=0.95;exitDx=0;exitDy=0;exitPerimeter=0;entryX=0.474;entryY=0.143;entryDx=0;entryDy=0;entryPerimeter=0;fontFamily=Helvetica;fontSize=12;fontColor=#B3B3B3;startArrow=classic;startFill=1;" edge="1" parent="1" source="39" target="51">
                    <mxGeometry relative="1" as="geometry"/>
                </mxCell>
                <mxCell id="39" value="Regular Internet" style="ellipse;shape=cloud;whiteSpace=wrap;html=1;labelBackgroundColor=none;fontColor=#B3B3B3;fillColor=none;" vertex="1" parent="1">
                    <mxGeometry x="920" y="275" width="120" height="80" as="geometry"/>
                </mxCell>
                <mxCell id="43" value="Cloudflare" style="text;html=1;align=center;verticalAlign=middle;resizable=0;points=[];autosize=1;strokeColor=none;fillColor=none;fontColor=#B3B3B3;" vertex="1" parent="1">
                    <mxGeometry x="55" y="590" width="70" height="20" as="geometry"/>
                </mxCell>
                <mxCell id="47" value="" style="shape=image;imageAspect=0;aspect=fixed;verticalLabelPosition=bottom;verticalAlign=top;labelBackgroundColor=none;fontFamily=Helvetica;fontSize=12;fontColor=#B3B3B3;strokeColor=default;fillColor=default;image=data:image/png,iVBORw0KGgoAAAANSUhEUgAAB4AAAATbCAMAAABP3VhdAAAABGdBTUEAALGPC/xhBQAAAAFzUkdCAK7OHOkAAAMAUExURUxpcV5iZupDNXp/hl9jaEKF9F5iZ19jaF5iZ2t+hoGHjnuAhmZrcGJma4qQlV5iZ5mfpWJnbIWLkl5iZ2ZrcF5iaF5iZ+lCNDSoU36DiuOsYF5iZ4KHjn6DinuAh19jaIeNlIGHjl5iZ19jaGZqb4SKkWNnbICFjEGE82Zqb1q3/2JnbGVpb15iZ2Vpb2Vpb2dscV5iZ1Sr//q7BDOnUkSK92BlakLYakjqc0aP+DauVmRobWJnbP/PIje0WVm1/2RobWVpb0KF9WNnbf9eSulCNPu7BGJnbOtDNGhscv3EBUGE9GZqcGdrcf/6BkGE9GJnbGRobWZqcGVqb2hscv9aR15iZ2BkaV/B/+lCNGJmbGZqb/y9BP/6Bl5iZ0GF9fu8BGhscmdrcV9jaF9jaGNobVav/2dscWZqb2luc0aN+WhscUGE80KF9f9aR1iz/2ZqcGBkaWtwdmJma2htcmhscetDNfu8BWVqb/9bR2Zqb//5Bl9jaGVqb+tDNV1hZmVqb2twdWJma/y8BGdscWhtcmltc2hscvNJO/3LBUeP+mVpb0eQ+UaN+EeR+vVJOkeP+jOoU0SK90eP+f/7Bvy8BGtwdv3IBUWN+P/1BfJHOPNIOPvNBvJHOPFIN/7OBWJma2VpbkWM+F9jaPRKOkaO+f3HBf7PBUWM+GVpb/7OBfNIOP3IBfVJOu9FNmJma/3JBUOH9fJHOETfbv3JBf3JBf7OBUSK9/FGN0WL9/RIOTWsVf3FBf3KBWxwdkOI9vNHOPBFN/VJOvu8BfNHOfy8BP7NBTe1Wf3DBfdLOzavVv3LBUG3VjawV0iT+zezWDm5W0aP+TavVvBFN/VJOl9jaD6NzN1HQl1hZkOY2H1tr0GT0z6Ny/+GNqaocYNnafmGI2R1cF9jaEKF9Pu8BepDNTSoU15iZ0GE8/u8Bfu7Bfq7BOpBNDOnUTCnVDSmWT+NzMW2GkKpTetKMXxtruxBMkGF9d9HQPu9BPefD/ODG+9kJ/muCvBzIfaUFD+OzPwRGJsAAADldFJOUwD6/g/9/vT+/gEQCsLuBPACewr8he7z/v4VAfYHEg3sBgz56UYPPRj8IRC4Hd3tJDjYDvz7uMYOEO64jKgE7ghao+2bB/b2lPAsIPUygAjxeEyUzUcQ59IE+7nb7BDk5/FEcuD1ahZUsT8fKfncFQu8v2qyL2Lpv+QMJw3MZN/9wEzg3TucZHclnigaSJ1iQDbt04QU51slPRjthGZ3ljvR1ZHjHVh2Rq3ZLaSQMtTUrsLCCOrWV3uza1rXuIGkytzOTcZlzkxExWqiwR58b2EwwYq5cfj+/vTu2bj7EhBdOS////1gQp/vAAAgAElEQVR42uzVqw3DMBRA0YxgnF3CvELXCPcU4XlSNwgJDKw6WH5SC6oEVCmpziG2/CGP3KoCAAAAAAAAAAAAAAAAAAAAAAAAAAAAAAAAAAAAAAAAAAAAAAAAAAAAAAAAAAAAAAAAAAAAAAAAAAAAAAAAAAAAAAAAAAAAAAAAAAAAAAAAAAAAAAAAAAAAAAAAAAAAAAAAAAAAAAAAAAAAAAAAAAAAAAAAAAAAAAAAAAAAAAAAAAAAAAAAAAAAAAAAAAAAAAAAAAAAAAAAAAAAAAAAAAAAAAAAAAAAAAAAAAAAAAAAAAAAAAAAAAAAAAAAAAAAAAAAAAAAAAAAAAAAAAAAAAAAAAAAAAAAAAAAAAAAAAAAAAAAAAAAAAAAAAAAAAAAAAAAAAAAAAAAAAAAAAAAAAAAAAAAAAAAAAAAAAAAAAAAAAAAAAAAAAAAAAAAAAAAAAAAAAAAAAAAAAAAAAAAAAAAAAAAAAAAAAAAAAAAAAAAAAAAAAAAAAAAAAAAAAAAAAAAAAAAAAAAAAAAAAAAAAAAAAAAAAAAAAAAAAAAAAAAAAAAAAAAAAAAAAAAAAAAAAAAAAAAAAAAAAAAAAAAAAAAAAAAAAAAAAAAAAAAAAAAAAAAAAAAAAAAAAAAAAAAAAAAAAAAAAAAAAAAAAAAAAAAAAAAAAAAAAAAAAAAAAAAAAAAAAAAAAAAAAAAAAAAAAAAAAAAAAAAAAAAAAAAAPgn9SGzAYAfZPfqlwDASU9f25RLKbdDy2Vu0vuj4QHAV+3d19Rs2W2HboqIcdF/WE/vEc9H124pzkmGmdm7e9fG0TyA40HgIl06gf6C3JYLW5qBQQJBiqkM6yrdFMeNphOoUS2WnXiZ62KsYvFVxoZzc8HN2sZNmm0SWNjWCFxMd7t77el5JDt2Ji9+0Zul76cKSdiN1obv/h49jwwA2LO9dd0R4Z22/eHg+to0TcMwmiH1K+K74Q/DX7m+ngx77ZEI8UOG+S8KAMBr8V2115rO2sPxteiujG4gKYHyhPDbkoyxKPH1eOjfywyfEWEAALaIr2xvpzcR6RXhVeLoqg+5fWT1A3UZYxHisMPX45t2qxvOwkQYAIAX6qs7Vn/mh+01RHsV2Vb1yeg+Zz3EMsOmPenNPCIMAMDTZHx7Y9uM2rvq6F6WGQ7HYRFhc3xz71lRhGkwAABro+/IH5umsdbe4GBxhsUsbBjmuDfrNnSNBgMAIHMYjr6dm2sR3+Tau1Fh+Y8MI2zak/u+5dBgAAAFdqxWe2LLZefk4/tVhJvhIOzHDQYAoKr11a2WPxY3feNEBimK/w1iEKbBAIAK0xv9Tjj7yoVn9eEsb7oRlnN23GCxJ4sMAwCqNfw63duhHc2+KY++zzTYntx3nTqvBACgSsOv1erZZvb1XWuwuB9s96aWzqsBAKjO8DsxjZzqu9FgwxyEY7DGSjQAoOTtPTmpN/q+azTVHOu71mCxFO33G4zBAIBy51e3pjd2vsPvQ4GDeAy272asRAMASky3bidmAYbfx1uymuZg1nV4fQAApZx/w/yO4/wGhbEcg0233WUKBgCULb7h9Ou1x6Ya5bdAAZYRjlaiSTAAoIz5dQ21YNPvZoNXCWZHNACgJHTrdhDtvAoKaz3BAACUwJm491uknVcvJ/ieHdEAgDKwphNx71ctdn0fEmwOZhar0ACA46Y5/WG08zk4CvLhHObdtMGtYADAEdM93z6i/AryXLDt9zkWDAA42vHXunXF3qtjWH3eSHCgGG6bdWgAwHFyWkOzuAePXt2NNRDr0AAAHJl6tPpcvMdubPt0LNXueTpTMADguFgjefJXDY6UvBXs3lu8kgCAoxp/b45z9Xkzwap51+dQMADgiMZf90hXnx+vQzMEAwCObvwNjh5DMADgeDRKMP6uP5eDIRgAcATOPN8ux/i7NgT3PHZDAwAKzWlNjLKMv+tDcIsHYwEACszqlGr8fRiCbb/LqwsAKChN7r4q0/i72g6tGkP2YgEAClnfE701aKrHffb3uQSLIdgdsQwNACgg69aVy8/lC3BcYLvNbmgAQOF0eyVcft7Yi6Wadx6vMwCgWDy5+zkoMbEbesCNYABAkegtV1XLufz89Y1gzgQDAApBO2mU9/bv42Vom8diAQCKwmrbpdz9/PSN4B4nggEAhZh/l9uvqkCeCGYrFgCgAMq//WrzRnDQHHpnvOwAgNz721TLf/t3VeAvivLnb7//9D0vPAAgT2etSmy/WvkSBH/+74/zDz++4bUHAOSnLvqrVqW+q/7+tbi8+sirDwDIi17J/i7+WtRkgU95BwAA8uDcVrS/cwoMAMizv3ZF+1uLCvwN7wEAQF79rcz2q7X+zqMCv/30nncBAID+ZtffuMDvKDAAgP5m2d9VgVmFBgDQ3wz7u1yF/vVb3gsAAPqbXX+jAtc4DwwAyFB9Sn/ny73QFBgAkBH5/MnK95cCAwCypdHfjQL/i09mAABk0d++W5mPH3y5v3GBP/DZSACADHiTZjWffzV/vsBnvC0AAOmOvydd+rspLPDnH3hnAADSZfUMVaG/60Pwonb+77/zzgAApKnRNqt0A3iL/ooCzy94KCUAIE169AAO+rtZ4Nri3c88lBIAkJqKHUDasr/yNvDbqze8PwAAKfHo73NboWuXbIUGAKTV3wn9feEwEluhAQCpsHpGUJ0d0Dv0Nyrw+S9sxAIApEC/NSt0AGmn/kYbsS74dGAAQPLiDVj0l41YAIAseYMK3QDevb+iwDWeCg0ASJp10wzo78u3gec8EQsAkDCnY7L/6rUEiydicRsYAJAgrVWhJ2Dt2V+5EYvbwACAJFXpBvDe/Z1Hp4FPebsAABLSECeA6e92t4E5DQwASIg+sot0A1j5SjH6G38swz8/8o4BACTCK8YJ4OeCK76jJhTiw/orF6EvOYsEAEhEI/cTSKvwhn+EGmoKhiC+EN8JfydYdjjH/s45iwQASIo+yvUE0qq9oruGadqmPbgL9TohX3w1CL9lmmGMVXVV4bz6K24DX/z8Le8aAMDB8luAVpb1DdtrmLYdRnfU6luNiCPEX3utURhj2zaXFd4rwof3N7oNfPkji9AAgEPltwAdTb6qGrbXvelMPRFdva49+VfWdRFjr9XpDWSF40k4+/7K28Cf2QkNADhQPgvQYsVZ1rdp2AN/5In0Lv8iTXvU4LVv1EWFp+2hbYpJeLcGJ9Tf2ry2uGAnNADgQLksQMezbzj69mbeqr3aK39q3GFNdxreqOeahmjw1glOqL/shAYAJMHxs34ER3TjV9TX9afdhq5t0971DMcRtqa+aHCwZYOT66/YCf2P71iEBgAcoD7N/BEc0aYrw+6NrIdl533EDW5uNQYn2V+xCP3uV54JDQDYnzURO7CyzW+gGPbktntYfaNJWHe6s6EdjcGZ9Td+JjSHgQEA+w+R4kMIM1yAjtaebb9l6Sc7rTu/0OBG33eju8GZ9VcuQn/iMDAAYF/Z7sCK8ut2PKee5EWcOd3OwHwpwYn3l8PAAIBDOPJDkLLbeiXz2xXbrrREr0PTrZlMsKpk01/2YQEADulWK7sdWBv5TUGU4CB+nnTq/a2FI/DbK/ZhAQD2YQ0z24G1ym9a/y8hE+yK7VhqBv2VI/DiM/uwAAB7qMtnYClZrD6ritq0/bSm31WCu+0wweJWsJJ6f0WBL/7DCAwA2GMAHqvZDMDi4K994zlautcjEuz59uat4NT6K/ZhcRQJALA7/dZUsxp/jcG0kclFaY3WJFqHVlLub3QUiUdCAwB25Q0yGICjz++12916VpelWe2HITjN/sqjSD+c8kYCAOzEaWdxBEmOv5OWk+mV9YemLLCSan95GgcAYK8B2E39CJISqNH4e5btpYkhWAzeKfe3xggMACjiACz72xxkO/6uhmCxHVpJs7+MwACAgg7AqqKaN10tj8vTxHbotPvLCAwAKNwAHD160u5YeV1hY+aqv/1xnmJ/GYEBAIUbgOXys5LL8vOS3prI/tbmjMAAgIoMwLK/xp13lutV/u27i0Ut1QmYERgAsBNrnOoALPqrGr1uzld5+v7T23BGZQQGABREyg/BEv0NbN/K/0K/ubpcpFpgHocFANhtAE5xBTrq76iR/3Wenny8+pBqgWs8ERoAsP0ALD8GKdXjR/bIOdGKcK1vfkq5wHwoEgBgW400PwdYnD8K3JFTlIv9Pu0ChyPwe95TAIDXaS175wFYFb48Tfxoo7/qoK8X53JTL/Di3RUjMADgdU5vlzNIUXfll/99mvytKMTL/p4V6XpTLvBifv4LIzAA4HX/Z+9uXhrL0jiOh4Is3NVOyF8QsjS46EUQQs2lMRC3GUhIVlkEHXfdNIHZZDMRyxFNSMtkWpAplYwNClNKNRbFvCjCQEP/AbNKCu711q42VWoVc8+9SdSU7+U59yXfz6JepLq9hgs/nuc855y/3bEAtqN31Mnd09OTk5OPHz+aA86sr52cfDo9dYLYTuE//pzw1g/sJLDEHnTyxwyvFQDgFs/+eocCWISvXfOefjr5bMfusWlYPgwQX+tF8cmJHcPf/SL6zxEv/cjdBA7LKoFT7EQCANzKPoTjya3ha2WvE73HInaNrsEK2Ox+XfyLbgz/1Kjl0hFv/cxSE1gcxsFOJADALRL/unEPUjd8P518tNP1Yo17IW+NKwK5m8PHWvbl9vpqrZwOeagQnniRl5fAenvqFWNYAICb3TSC5aTvqRO+H87z1bjdcf+fmmZcK2T/sd1s1coRz2Tw7EJS1jqwOIxjiTEsAMDN/nTdCJZIX6v0/XxmHp+Hr3FPvf/GNK0QfrllFcIJj2RwbG3KSkrGsAAA7rhmBKuXvk7l+6DsvZTD9i9xLfuyurvikQXh4uZ0Ww9LG8PiTiQAwE3+8M/fv/2iAh4VneeL6Ws8ArNjZ3BB1MFpL5TBpZ1oW84yMAdCAwBucdUpWKL4Pf189qjpe14I23Xweivngb3Bc7K2A1v/V07DAgDc5IefBjrQo+9G374/6aev8di6GVzf3rDLYFdlnFFoGQncnt6kBw0AuJ69CfhS79kqfqWl74UM1gov1yfLLrehx5ZTcgax2AoMALjR5U3Advx+FPFryovf3nqwVQZXtlouR3DxN0nLwGwFBgDc5OImYBG/n8668WvIJr5DXKtXXY5gScvAVlkdfRPj/QIAXOO8A92NX7v3bKghDulwO4IzC0kpTWjRg57j/QIAXO3ZL90OdD9+TWXx2+tEuxzBMbEbmOMoAQBK9WagR0X8Gqrj92IEp13bF1yS1IS2e9AjvGMAgC9ERAf67ZO3o6Ni9MqN+O1GcFyrv550a1NS5kVSDz/+HJY4jpI5aADA1Qn8529Hn4y+e3v62bX47UdwpbniUglcHJfShOYsDgDAdX74y+9E+XtyZnxwL357jejC0UbOnY9hLi9jDouzOAAA19S/4hzod+9PncVfw12m0YnXq5OunE85sZeSUAKL86C5kxAAcJWfvxt973SfDddZj9DRKrs1Nz6H0lL08RNYLALP04MGAHzp2X++/XQm4vfY8AKxLTi733JhGEvOZmC9nVqb5S0DAAyIhP73d6+Uv/0INuOVpgtFsJQ5LLERqchGJADAoNxu3VPx2yuCtxvKx6Ez8xJKYNGDXmAVGAAwUAA3trJWxXlseIsYxqpslFV/GjEZJbBuJfDm3FPeNQDAufTqgWYem4bniCK4vrUShBLYSuDw9NI868AAgL5asxJ3biTyYgSb2lFL8YYkGSVwWCSwnl+mDQ0A6GpURfvZ8Ci7Db2rtg0tZxW4HdbD+tQmR1ICAIRE60DzcP5229Cv1bahY+OSbkUSbehF9gMDAELpw4ppeDl/nTZ0YbuhuATWZdwLbLehZxZivHcAMOxqzbrp8fh12tDav1vq9iONhIpL0baUBBZt6OQaO4IBYMiteHr593IburKq8FiszMKUlB5021kIfs5CMAAMtca2ZnZ8kL9OG7reLIeUVcGlGV3CpUi9heDUzhxvHwAMcf56fPzqywRWdzDl7FpKVglsJXA7urOY4QUEgOEUaR3EDd/kr7gm2MxWV5TVwHNJWSWwsxA8QwIDwHBKrFZMH8Wvk8AFVQk8Eoq9ibZlNaG7Ccx2JAAgf0ngQRPSxrD6CbzAuZQAQP76ZR1YXQKX8tLGsLoJnCeBAYD8JYEHjW1Ot0lgAAD5qziB5fagnQsKSWAAIH9J4EFye9D2diQrgZnEAoChEfFx/vYTWAG7B92WncDsRgKAocnflp/zt5vAKk7kmPhVcg/aTmD2AwPAsGgcxP2cv04Cv84p+KTkncVxOYGf8lICAPnrm1Mppd/MMBKKLelSe9DdSawlzoUGgCGwsq35PX+dBN6VfzeSOA9adgCH9XB0h7uRACDwalXN9/HrJHBlVfokdOaF5EVgJ4Hbqc0ibyYABFu6mTWNQCRwx6w0pH9cJdmLwHYCi/uBY7ybABBkicN6MPJX1MDxI8mbkcQicFR6D9peBk6yHRgAAs3nG5AGIliryh6FHnsufxHYHoUO5xmFBoAAC8AA9KVl4KzsUWjpO4EvbEZiFBoAAqtW1YKTvyKBjcpqQuon9nQxqctvQYsEbkfHGcQCgICyB7CCxDS0alnmJzYSin2jYAqrO4i1NsY7CgBB5O8ToK8ew/p+UupHpmoKq3sz0gvOpASAIArUArCS/LXEJN/HcDGBwywDA0AQ5bY08vfeZpdTagKYZWAACKjEbrAWgNXkr5qzsM6XgX9lNzAABE0jWAvAivI3lJlXMgbdXwbmakIACJjatkb+PkTxG2UBLJrQOzShASBQAtaAVpa/6vYh2cvAYX1qeZa3FQACJFgNaHX1rxXAvynah0QTGgACKBeoI7DU5a8dwNPqAritt6eZhAaA4EgcZln/fSAl1zFcakIzCQ0AgbHyMkh3ICnNX3UbgftN6JkSbywABEN6S6P/7JMAFk3o55wJDQDBEKRLgFXnr/IADof1/DxzWAAQBEGawFKev/ZRWCoDmM3AABAUQZrAUp+/ocy82gC257AWmMMCAP+r/TcwlyC5kL/KA5g5LAAISgG8W6D/7KsAbuvt1B4lMAD4XXC2ILmSv24EcJgSGAD8L90s0H/2WQDbJTBHQgMABfAw568rASxK4LkRXl4AoAAe3vx1JYDt0zgogQGAAniI89edABancbAKDAAUwEOcv+4EMIPQAOBztWAUwC7mr1sVMIPQAOBnAdkD7Gb+ulQBUwIDgL8L4EAcguVq/loBnBQFaVj1XuC2vsSJ0ADgU5FV1adAH3c6F//a6Zh+z99eBSyawipjOMyJ0ADgX2WV1yA52WuaZjwe1wTrd9P+7l+Xwi7nrxXA+enpaFTX9XA3hZVdivSGEhgA/GmybipLX5G9ca2QzVb29/fXLVv7+0fZbLagxU0nR/2Zv6GRub29zfHxpWRyKjWt68oy2Po+yR+5FxgA/Ci9rqYAPhY5KcJ3f/2wVctZ0pay+MPKarN6VC9oohQ2fZm/odDTidmxsVisODe/tzmTnJrWRTaGlYxhcRgHAPiS2IOkpPg144X60fpqrZxORAaeIWEF8cphtWJl8EPKYA/k73kQZ2bHiouvxvNWBqsogzmMAwB8KnGoYATLqn5NLXvUbOTSCfu7Ri5EcO/P6XJNZHD83mWwh/J3xDmaOTMxVloYz6fsMlh6CTz1ijEsAPAfBSNYVvUb1+pbrVxaRG3k6ueIOBk82TzK3jOCvVT/dmNY/DIxNrc2k9J10YgOy6yA29E3Md5jAPAd6SNYVvXb0Srrk+XErc8iQjhd29gXEWz6N3/7OTxb2ltK6ZLXgkUPepExLADwm3SzILcAtqI0Xl+fTEfu/EiJ3MZ+4c5FsHfzV0TwRHF5RjSidYlFsN5OrTGGBQB+k9vWZC/+1quN9P0eKlFrHmh3K4I9nb92BJfW8qIPLbUE5jQsAPAduR1oK0S1g9Vc5N6PlZ7cqt+lCPZ6/orl4NnFnSmZK8FsBQYAH0qvy+xAW/lbfz2ZeNCTlTfuUAR7Pn+dEC4u58XJHLISWGwFHuNdBgBfkdmBtsKzUzksP/TREpPV7C0J7I/8DYkieGlal5bA4lLCmDN6DQDwCYkdaNPoaN83El/xcLlm5cYE9k3+WkVwaXNKWgKLHjRz0ADgKxJnoM2OWdj6ynhMr96UwD7KX0tx7f/s3T9rW1kax/Hb3MLN4tL4FRiV0ZjJLGgNKlRYILUqJKxKhZHxC1DpKsIZEkvCMRgMAcfGuHBI7BAmJkVINsyfTLLFwNY3mHvnks3uvoK95+bPZpjYSPHzKPccfT9FyszNQfCb55znPGdJbReaPmgAsI3eDnQSm/XD/mW/r7Dz5Nyniu3KX8/Lfb+kVQObPmj2oAHAJv37sVr+Dk4aAl+4eV4C25a/U96qWgKbPeguv2YAsEfhWTPWy9+OyDeek8C25a+hl8DMgwYAu3QOdeZAx1FcF8rfcxLYxvxVTGA/aO9zEQkAbDHr9Y/zSkfAzcOG2Hdu/rkTy878/ZjAKvOgGYYFAPZY1HmJMI5Kl++/+uR/FP7UC21r/nperlf0NZ4IZhgWANikcKJyCUk8Hisngz8ksL3563mt6+VA/nGkpKouP+AiEgDYwhwBa7y/EK9tCn/oaTNyI389b/nuXBAqHALPzXMIDAB2mPUaP6kcAceDZwXhb9169P9GLLvz15u+taJwDGwOgbkJDAC2ULkFHEel0474px58PAa2PH89b+FFVeEY2EyjnOYnDQBWKOwp3AL+Pco/VcjHwknTkfz1vNZ8W34TmpvAAGAPnacI48FOQeFj++82oR3IX8/rKmxC+zxJCADW6FwrKRTApWsNla89GESO5K+32iuL70H7wdxjDoEBwAZaYzikO6A/1uunpSjvRP56XmtDvBPajINmFAcA2EGhByspgO9UlD53cS12JH+92vdV+RKYURwAYAmVHqx4TS0hkxL4tRv5q1ICh0F1ly4sALBBZVu8B0uzADYlsCv5q1EC+8zCAgBbAvi0pNACrRiRlWdbs64svimBffFZWDl+1QCQeRpzsJIC+LCj+M0Fd5Y/KYGF96B9P9ygDRoAbAhghSbouH4wy9IOZXkllN2Epg0aAKypgOWboPPPG6zscK6YV5Gk26C70ywsAGTfYj1+LbwD3dyusK7Dqe0WhUvgMOAeEgDYoLAn3QT9Oh5ssq7Dam2Esm1YPtOgAcCOAD5psgP9FYnvQXMPCQDsIH4LiR3okdR2q6HPcwwAQAAL7EDTAz2K1neyh8B+0J4ngAEg+xpHJfExlH2WdXi5V+3AF57EQQADQNZpzOHIP+IIeASrvbJsAPvhCpM4AGASA1hzDrSDaruyw7DMJA4CGACyH8DSg7B+j5rPCizsCLpF4S4sAhgArKiA78vO4aAHazRTXk66CyssLrOuADCJAdz3SOBRAlj4RaQ5RmEBwCQGcBQfNwjgkQJYvA2aAAaASQxgmqBHtHq7TAADAAFMAI89gHsEMABMIPHHkEqHHVaVAAYAXEz+MSSuARPAAIChApg5HF9Vbb1KAAMAAUwAjz+AiwQwAExkALMF/XUDeJcKGAAmMoBj4Qr4lAAeCWfAADCR+tLXkEpHdEETwACAi3EPmAAGABDAE+nKdQIYAAhggVnQa8yCHoH8LGgeYwCAiQzg9DUkjBLAK2Eg/Bxhd5qFBQALAjgSDuCdAgs7gpb8e8CtJNcBABkP4J/ysjvQUfOEe0gjqK0XQ8n8NQGcI4ABYOICmNcYRrTwsBqEkvlLAAPAhAZw/jldWCO4cr0t3AQdbhDAAJB9ncNSJHwIPFhkWYc15eU2hHuwgrn5HAsLAJlXORUO4DhqPqMLa3jdonAPVtCev8KyAkD2A/iO9HNIHAKPQvoIOAngcm+VdQWAzJN/DimKj5mFNbTcvuwRsAngBwusKwDYEMCx9CFw/YA96GEtL8nuQCcBXN0lgAHAAuLPIcXsQQ9PfAeaSZQAYAf5UVjpOGimUQ4pHQQtPYejxboCgAXkLwJHcXObYVhDmbpRlN6B9sMlrgEDgA0610rS+cuThMMyUzhkd6DNNWBuIQGADcQvApsIru/RhjUM8RYscw14nwAGABsUTuTvIVECD2e1Vw5C6QAuP+AaMABY4aAu3AZNCfz1CuAgDKrrNEEDgAVmzT2kiFPgr1YAy+avaYJeZmUBwIoAVmiDpgQextQN+QKYJmgAsIf4e0hpCRw/3WJpL2amUIoXwDRBA4A1KtviXVgmgkun3AW+UG3X3AGWroB5igEArDG7o9GFFcWDHTahL9JdCX3pApgeLACwKH81urDSPqznbEJfoJVuQMsfAdODBQDWaBzJHwKnm9CHdEKfa+FFUbwDy+xAhxv0YAGALcwsrFijD6vOSOjzTN/S2IA2R8C3OQIGAFvIPwn8PoGjtZ1ZlvczprzuhslfX+EIeJcjYACwhsohcFoDr22yup/L39bjOekZlBwBA4B9lA6BTSPWExL4c/l7vaxwAMwRMADYpnJH4yYwCXxh/sofAHMEDADW0XiPgQQ+j1r+cgQMAHaZ9frHKgUwCXxB/mrsQPvhEkfAAGATMw461ktgRmJ9oruvlb/J39lmEDQAWKVw0tQqgdNe6L0Oa2xMebUbj9ta+Wt2oB8usMoAYJOt+2oBnI6FvtNnjY0r6yuhr5W/Zge6yxoDgFU619T2oNMEbh5tsg3tea3eUlL++jr5a54ivJtjkQHAKpp70CaBX+fXTia+CF699bic5q8SdqABwEKae9DpVMq4fnRQMR3Xk6q2nJS/SteP6IEGAGup7kG/K4JLa6eLk/k4w1QSv60XK+Uw0Dr+TfOXHWgAsFBhr66Zv++K4NLT7a3KrDd5sxIXcuuvqqb7Sm37mR1oALBV/zgfRdoRnG8eb//87bQ3MRls/plTC60Xr4pzit1X7EADgGh83bQAACAASURBVMV0HgX+g9dxFP/nvzd/fHn13nSaTm6n8NT74rfb26i2091nVWHQvs4UDgCw0MEgVi+Bk/w9m/nm5g+/vLz67V8+5JSD3v/Taqu55Yf7S+U57d3n9y8RrjMHGgAsZN4kjNXz918zMzNvvrl584cff3159eq9e9PTTi5mLcne3PJ6b6OYFr/q8Zu2YG20+BUDgIV0rwJ/yN+zs5k3aQabEP7rP379exLD45Ibm+76bm8/Cd+k9k3TVzt+0x3o8gNasADASluqbVgf8jcxk2bw2Zs0hW/+bWz++d24FKvVcjsJ3/fpO4b8ZQwlANhLtQ3rk/x9l8EmhM9mzpIYHpe3v4VjY+ZCpuE7huz9UADfpgULACy1OBhX/n4I4Xe18Ji8/c0fmzD9Mxib5D+2dIsWLACwlN40rM/l77i9eftvUyi6KQza80zBAgBrHQwiZ/PX7QD2/eouBTAAUAJnMH+dDuAwCB9zBwkA7FXYq7ta/7odwBTAAGC5/qO8eAmckfx1OYApgAGAEjiz+etyAFMAAwAlcGbz1+EApgAGABdK4IGb9a/LAUwBDAAOaIg2Qmcof90NYApgAHCC5KuEWcpfVwPYTNziHUIAcEDnUKwEzlT+OlsBh0F7nyFYAOCAxbVYJoGzlb8OV8BMgQYAJ1TuNB2sf50NYJ5BAgBnmHeBY+fy19EADv1whXeAAcANItM4Mpe/TgaweXS4+mCB3ywAuKFxdOk+rOzlr5sVcBjM3eUKEgA4Y/OyfVgZzF83K2A6sADAKZftw8pi/joYwL7pwOqt8nsFAHdsXWokdCbz18UK2MzAWubXCgAuObjEJnQ289fFCtgPl5iBBQBuucQmdEbz17kA9rkCDAAu+uJN6Kzmr3sVcBjMsQENAO75wk3ozOavcwEc+iEd0ADgoMJJ3an8dS2AfTOCgw5oAHDQl7wMnOH8dSuAfUZwAIC7Fp+Megyc5fx1rAIOfZ8Z0ADgqNmdEY+BM52/bgVwyA0kAHBYZbs+SgJnO3+dCmBzANzjBhIAOKtxWHKl/nUrgMOgvf8/9u6ftY0zDuC4lhu8GI8iU0fh0bWxCZSAhwwRRKuHFnfyYCT8AvoKEmKw0oQ4kMngxnRK0CBMKJmKINg4ZOjSbilGaRF5Ce09J9txmz92sCPdc/f5DN5tH3z5Pfc8z3kBDFBgn3EaOO/9LU6Ak/AC2AlggGJ78Os5C5z7/hYmwFl/WxtTHk6AIjvvRqz897coAc76awMWQOF98/j+OQocQX8LMwH3k/7irhs4AArv5qOzCxxDfwszASdJY2vacwlQfN/98v0ZBY6ivwUJcBI+gWQDNEAp3Lv16QLH0d9iBDgJN1DaAA1QEg9vXY9+/i1GgPUXoEyuVB4++fh3GWLpbxECnPQT/QUoVYEffPS7DNH0twABNv8CKHB8/Y0/wOn827/rAg6AkgkFfj/BEfU3+gCH9efnGy7gAChfga+/txc6pv7GHmDrzwBldeO900hR9TfqAIf7J/UXoKwepgX+8+9Y+xtzgLP7n5v6C1DeAn/75l2BI+tvxAEO/e3Xd/QXoLTu/XT/ZAaOrb/xBjibfxvunwQosx8eHX+dMLr+Rhzg8P3BH/UXoNRuhu8Dv/krwv5GGuBk2N9t3z8CKLkrPw+PI0XX3zgDnC0/91sb1zx5AKV348n3MfY30gk47W/96e0Jjx0AYSvW16G/VQEewfJzf3HL9mcAMjcfp/2tVk3AIxh/k+Vdr38BOHJl72p7UB1UoxqCowtwGH+bz73+BeCUhf32YTWuITi2AIfdV4vrlp8B+I/53rPZuIbguAIcDh/VWk4fAfB/U3uv2oOYhuCoAhzG38bObR8fBOADQ/DBs9m0wINIhuBoApwcjb+7Lr8C4IMmwxAczTp0PAE+Gn/tvgLgo0NweBN8mA7BAnyJq8+vk6bxF4BPmtrbb88OqjEkOI4AZ6vPy1urSy6/AuBTJjovXxytQwvwpbz87Teebs54sAA4I8CViYXes3Y1/6eC8x7gLL+va/XW9orNzwCcx+RC2A+d9wTnO8BH02+z1V2VXwDOq7O3n+3GynODcx3gJEy//ebylr3PAJzfRGXiJMEDAb5AftfsvQLgMyOcJbgadkTn81xwbgMc1p7lF4CLJTg7lJTLleh8BjgMv0lSq7fkF4ALJHjhICQ4rETnrsH5C/Bw41WSNBt3u6vyC8BFdBZ6L9rZSnQYg6sCfNbw228uz22vXJNfAC40A1cqk/PDlejDnDU4XwHO6vs6HX5bWxvTDh4BcBkJnghj8HGDc7MWnZ8AJ8P69mv15fXtlbWl7I8GAJcgHYMPXrTTBg/XovMQ4ZwEeLjwnNa3sfx0d3XGsV8ALncMrnROGnyYiwiPP8DDyTf90W82FtP6Toc3v4ZfAC5dZz5biz41CI+xwmMNcHIqvvXF1s72sL4A8OUa/PLgJMKHY+zweAKcHKc3XLgRJt/lue7taSvPAHxZYcqbfBfh2ZDhw1MdHqHB29+SUatl5Q3pTQffRjr5djdXZtamPBcAjKbBWYT3evuhwiHDaYcHo5+A/wl3X4z4lsl+v1ZP07t4d6d7Z3V6Zm3p5E8CAKOJcFbhhZe9/VdXQ4eHJR6ht3/URqZZr2fdTcs7t969s7ly3F7xBWAsEa5MTXbSDs8v9Hq9/f20xSP0+9zorHe73e3NzdXptLzXlpYq4gvAWCt80qDJya86nazFIzMzMml1UyfhPf17A8A4OzxRmt/UfxsAAAAAAAAAAAAAAAAAAAAAAAAAAAAAAAAAAAAAAAAAAAAAAAAAAAAAAAAAAAAAAAAAAAAAAAAAAAAAAAAAAAAAAAAAAAAAAAAAAAAAAAAAAAAAAAAAAAAAAAAAAAAAAAAAAAAAAAAAAAAAAAAAAAAAAAAAAAAAAAAAAAAAAAAAAAAAAAAAAAAAAAAAAAAAAAAAAAAAAAAAAAAAAAAAAAAAAAAAAAAAAAAAAAAAAAAAAAAAAAAAAAAAAAAAAAAAAAAAAAAAAAAAAAAAAAAAAAAAAAAAAAAAAAAAAAAAAAAAAAAAAAAAAAAAAAAAAAAAAAAAAAAAAAAAAAAAAAAAAAAAAAAAAAAAAAAAAAAAAAAAAAAAAAAAAAAAAOBf9u6mp4m1D8C4pE3npoVOaTuT9HTGvlkbQkth4+awgLAgTSBRMDyJJiQgRAybo48mhkgA86gL964xrlz5Dc6Hmc18jWfumVoKtKWvMoTrtzkEPRqGOhf3zPT+AwAAAAAAAAAAAAAAAAAAAAAAAAAAAAAAAAAAAAAAAAAAAAAAAAAAAAAAAAAAAAAAAAAAAAAAAAAAAAAAAAAAAAAAAAAAAAAAAAAAAAAAAAAAAAAAAAAAAAAAAAAAAAAAAAAAAAAAAAAAAAAAAAAAAAAAAAAAAAAAAAAAAAAAAAAAAAAAAAAAAAAAAAAAAAAAAAAAALfcuIcDAQDAH8luj78AAAAGSm/9g1gsGneEPTnnQyMau/ybAADA4PH1ymvEi+FiavvBYtJxMiGdrDsf7jzdLofNcM6INf1uAAAwMCMXNueOkvsTs7OaqobSoXR+TMqnQ6GQrmra7POT9Z3tVLhoxDhaAAAMI773zdrR+oZTXqe6x7awrlJscZxP69rsxtLOXKpocNAAABhIPDx9tPQ8o6cTwlYUSwkGFaFcIZxPW4qT4URaz7zfPzowaTAAAP2Qd3INs/blpKCnhXDT65bXas3NsCIzbIu8ntnY8RrM/WAAAHoTvV/e28iE8sJy29o2vZcy7P5OkZANLueiHMbbx4i3wXcTAP6AbOp0qRBKOPUNdhnf5ggHZYNDheWnqSyH8rb1902ytbVtCgwAoxYv7/3U0vX6Wr2rNzitfT8qxzmct8j4vfCJLh9tvyKtTUU4PgAw2vxOJ1/owu63vk0NtoX+Ym06zr3g2xTgibzV4tuuWCECDACjPP/K/P6Qi19FPnll9c/5v2XARdpLMG5NgMesq8+5K0FLJ8AAMELZen4HWfw2V1h4CS7FOLS3KcCsgAHgz4qV3rzw8msNi5vg3e8vU1yHJsAAgNbCpxvqcPNbT7ByrM3UuA5NgAEALUSrS5ljMez8SvKNTInNtRLHmADfrqNxGS8QAKNgfqvITTeENQpOgsXuxhyLYAJ8S8rb7y8CQK9ih/sZoYxi+Xt+HVqwCCbAt6a9MSOeC19ghsPFePz38GsqDGA4iqeVhBj0jUed35TkLoInauymRIB9LmoUw+bBg6Pk+snExPvZhucTE/vJtQerKafDUSIMYDhK6wVbGdHV54uL4MrLIoebAPs3vrlw6umXpYlZTdND6bGxsWP72Jac/x6786+1zOzz/eTLsnmfiV8ABhZb3dgd6fK3aRFsF/7mMjQB9qd4uPxSDr7W02PCVrzNZJRgg/cPxJ19HVIzP5felfudumkw6uIPndpaDRXhsMBPZ9z4aUWIUS9/G4tgof9T5agTYJ991b9nb6ru4OvG8M3mAZwXZl9bQqT7nrrZat4Foy5G8X09XGtxpHk3HXzEfLPlXn5W/kSB5SI48Z85zjUE2FeMcO2LN3vTae91wze9DDembh4EYj0luOW8C0ZdjGQB/GAzf+lA62M/Aty7h2+U/tXs0T383Poy9Pw2l4EIsH++ZqP05qTX2ZtNUzcXepu62WreBducjCjA6uXXctCeDBNg+MXByW5Pl5+9jflFsIm4eKWui8vQ9ta7HIeeAPvjKy7Wku/1sX5mb9YbnNe+f04Z492e1lvNu2DUxYgCrFnBS0eaAMM/Dj/kRbeXn8/vf1mW3aT+rEr3awenwJvvTA4+AfbB13v/7VIh3f/sTa/Bx/r7tensAIeYFTArYNy91+fqh4TVTX8V70SjKLZI5EO6pmUmGzKaGvr95EpXEXbWDEFL+8QamADf9Nfq5jdfn7054NTNyucuR34RYAIMOC/PV5Vutn6u19eyRVrNTD5amNp7+L+vgcb2QG8fPpn6+9nHjOreRFOuH2Qo7wNboRUCTIBv+GuNV938Bgd+BMJNsP79qdnvISbABBh3r7/dPH71+0aXmjlbWayZgUDEiDY/xRyLZiORgFl9MvWsoMqLedcsJ9z+quspvgEE+GZf/6Xkj3p+B38G0d1lJjNTM/o7xASYAIP+tvvhPq8XFharZs6INc4ilwfEjGcjga9Pln9l8rLB7U9q9JcA+0L49OfusPLbGPlV2Sn1dYgJMAEG/W31c70l0k59v9Y33mszCab+6WzOXF3+qOaF0u7E1ugv/wYI8E2+/BuzN4f3Djy5CFb/qWUJMAEGBu+vm1/17HE10P2We9FI6t1Mod2lPfpLgP2geFrJi6Hvfi5/Xk1UrnvAnwATYNx1Bx8S192qdU8n2tmifItjDyfwe/eMwOryZsvZwvSXAPvAX9VRDR+R28xklqcJMAEGBuivfGevItTXr8xs7+fwe9HcgUzw5R0u6S8B9gHj1Yf0qIaPyJ9a049qMQJMgIE2Sid5q3N/5ekp9GExFe1z6Ol45GChIMSFd3jQXwLsA8VvL7q8+tzYPSl4vp1SV3eC5+cMAkyAgZbMf3ftztvNy6vPW4/L2QFmjo+Hn57tiqZ9PugvAfaBVLJgX7v8VZq3fWv+fPC6zWaUxl6r4wSYAANXxN/I+QudTyFC/e/hoAPHY6W1rfNBh/SXAPtAdUm1r737It/5Lgf/JhJyapGuOeQknXxCnM8q7HuvVQJMgHGHRU+3OvfXObsE5/eG8U7d+Nwjvb7ZFv0lwD5w6N7+vSa+ctpvPqRlJh/NLE9NTe09dDx2Plh49mvS3fHN7ji5Qe61amc+ldq81AkwAcYddiDfgGR1Onso6derwxkYOF5a27S8Z7HoLwG+8RPyq06bn3sP/ivulqu/Fh4/nDYDgVwkInd+i0ad/0YCgYD59snUs8mMXp9d2KHA+qcSK2ACDFxU2kh0mr8gr59lVspDe4nmtufdy9D0lwDffH8rnZ5+lg/+O/XNfFxZrJqBSLT1n5GNOBXemyno8in/NovpjgUmwAQYd1Yu2fEBLHl++rE4zFmBf1Uf7bqnPfpLgG+6vx1u/yrupm/aWfKtmas//XB127f6Z6KRQPloxh1j2DrB8oKPU2CTABNg4Fz0tNDxBrCTyvlVY7h/Z+mTagfpLwH2cX+9/G6uPEl5K99Or1SvwkbgcOqj2i7BboG1nRwBJsBAw+F8p2dQnLNQ4vVqdNh/aWqtYNNfAuzT/ir1/FYelyPZe92/827cSH0+U0Xrq9ruQw+bn+MEmAADdeZ+3urwAJbs7/QITurFd5UV+kuAfbr+FfX8yj1Xe3uRZlOff+222nS1fh94fpoAE2DAE/2mdbgBPKL+SpFagKNPgG9Qu81XvXe952V++zla49nSmpzrcPWPdvfjWDQIMAEGPNV5YYkb6K/zT+H/7J3PT9vYFscbEWE7D9mW80NybePEIY3Qg5BsuimLoi5GkYo0DYhZICHxowLEhtJWQqhVwlP7WLw966lY8U/0v5h/wBv/G+/e6yTkh53E9nXimPOdxTAzHY7P8b33c87xvTYEHwA8Q9248he/OrL4x6rK+YwXJ11s6kOvPSe7GWsfpAlDDAAGAINir0JDcW9A4++Jh8ZfEAB4liqfubz8HJe/yrdXC0Ei9kL7uk6O2jH99W/tfX7SEAOAAcCg2A/H8+KIBjRrAn9B8QRwqpFzGvmk/LX2MmtBtx3m6+So3SB/xYlDDAAGAIPiLrmVcGtAkz2btRuIEQA4hgBWr3Sns3eEv+naq2UaJfZP3XzqcY/iLwAYAAx6jiI7sNwa0Ji/bisGCAA8z4gQz4+dXr6Ktymzuc+rdFZj7etBd5f1SP4CgAHAoOeo8mPTdQcW/n7LhzzECAAcQwBvfEs7bX3AuNQzZVpxkw5rbQKP5i8AGAAMeoZSrwRrxGuAhD8LECNQDAFcwlsPGZeXrqbo2eGrNdLoHsNfADAAGAQFcH8vzjQ+yxAiUAwBzN/rjhuw8EOXVxJNSyIhMP5Cw8inOQBgADAICuD+BnQNNkCDYgngjXXHDVikTKX80lWbwGb60w3nMcQAYAAw6JkWwCY+ivGKhxCBYgjg0pbDy1fJpxJC2HQoVg8sxhhzmg8ADAAGQQHc24BWMvAAGBRHAPO3Dg1oJrRN/+pXnR13mh4ADAAGPTdp7meAWZP9tgYRAsURwE6NHybEQ3el7U8bPkIMAAYAg+I8En/oLi/BYhjGKkIDGhRLAEuZE4ez73j/86t8SBYXOB8hBgADgEEx1jJ5EubSgja24FNFoFgCeOPBYQcWy1j6WzVSIQYAA4BBMdaa61ug0b9+gFdQgmIJYKe8Ex96z2UWohViADAAGBRfqR9z7gXw4p8w9UGxBPCX4bzTPvRejliIAcAAYFB8F1VtJ226PQK21mEHFiiWAHZ88DLzQ+8AYAAw6Hmprrt2oKEABsUVwKQAZqJ26B0ADAAGPStJdy4daCZGBTCH1PszN23js7LeYy244ZAAPBieqQSm5FgAz/zQOwAYAAx6VkUN6UC7nAFWMnM/8XvWc9FWj+9TCK+rcW56nveZDmCYOoAHL1Gc2q15WXcogCNw6D00AHM9ivmSNqGjAGBQFFR3PwRsFjdi4KCoSqVUKqXVV4gO5VJKSxUkMeyV3v7VvFpAxlNy1bZ+oeF/ktSwrXMd21rHcex3atl2m/P7S2kCmFyEyJOb0w7P4RqJTl4Mv++TUQYLYNzx0Wf92c0QAOzCoThymPPiJwAYFAG574FmY3AGmEcEqn7PnC1dVyq6QJStVCo7rcb2yppWIhzkQlsK1GVtbfeu0VpCJvUsMa5XKtdLl5nvh3KqwIe5DiHPZWR7ab/jOPL7urW1jQxL4ugCybWCoAhg/KtFCYH3bfvmkPAIKDw4OlW5FPJR3PK1UwFsfNZmjhCqALbvIMpypFSPSpLEh55/zga+vIo91dqOFtp+cgBgUERVOjNMty3Q2VnXAwGrnNTa28ZSJSsoRqJpsZbtF/qhmU4oi4L+eHZUlcPCoChp9e9b+7qQUxID1hPGIsLhTuN0TQsJM/mCfN/YqWSR7Say3bVsKIvI8HZV9meXZgXMF+Tq3dK13n9z8DWi6OjXZ0cXJDghrYYObz/HPC7O/NA77QpYVEsp+fDtdqa1tITzQJT+LS2dZbZX3sulQj5eDJZKKN89wp7u246iNPu0qpVcpjgAGBSBtFG+dutAm+zfc/wZYDVVv2sVBSXBYv8YJplM4q+xMiz+Cf8Lk2WNnP7481TGFSHdWcdJ8o/Gvp5TWBZbwibb1rFxbN1i04qg77QxQ9v4/da1oKRZzJiO49hvbNliE4vZX0cXy300TLmICwfA6BJvUXKSMwZvTvveWPjW4ODwIQHC6e3nrKn8UZj9hKQEYI7kYVr1bgslYsIiSnNwHoj+Qn/HeVi20mp8v9CkmLxnFue7d2ck30WeNpvEUeSngP08lZdVADAokgO3qltJJm5bsLjC6sdWcdFgyeJO1namv9jBiz2BsCJcv6lqeZoLPV+qZ/azNnxdjeOgs2mMmdUCzSnPl740EH0x2ZLkA/BMn2XEYQYVw4vFd/Xlp63H1cslR10uhAFgric+zGB8nm5NelG/PJXDQXB96CUc+CL2Zv/WN3oVML+89nbrOptTmiQRM9t5IGO//RonYigDfGzs+sk/VWlY/kguOvwmyXu2rZF812Db35Zkuo7iXE4RKmff15ZFADAoem0b10NISUv/Is4nfpe/NB5ymL4Ef6bp9qVjsvpbrKJf/rdMrRLIy7dnRQJAZpz1JMZM7uFdPUXLuqj1GncxjP8LayAEF7pLUZZNDMtoFhf6liMqAEZ3Z2tcfDrBMYRfFO/M6FEfiQKYFoBJF6SYw2E2O4kYCXb7BzsDZFD+mX30nn+qV5khbR/6uU/czbbDr/LorLT6cUdH+RzTzXdJW6XrJ2moPLyraiIAGBQxuT8CNtm/tfnzh+ss8DZ9zTFqV2AJagu9WL7aySZY0x2A/dYJZvTLXY2G6y9Sty09wTLjjGO7yOzem1XebSlyXI4oAJjcHWOS+NjBaeI7I9IeIw5H7yLxBJgWgKXVzL6gdDsMI5IczGCP+Se6xFZOWeyXkvX1mFpc2TMGflMu8bDgBYLI1+Ncuj2iGOcpjmeZgmcZ12c7O5iFAYBBU57umvsjYOXNPHagpfYCPwH/Op7iP4oXevllYAJqtztCk52I/T0ZAELwZr1AxfU0MT7WqmkjuHaa6ixFSWZI9AHMqRvk7kwYH7KkNnO/dmlngg5H7yKy558GgBGSHnDtO7L/09MN8Zh/4ks0KO0TC1yF8hvY19H5HNOGM0p0qz2zjMNP3wDAoJnqwv0RsDCHe6DFcubYXuBND7IXeqFvevoi4PtWtomBypiMF+tJk3kqR33Ldn1C4wTBjKW/W+WmWAGX7zp3Z9L4kHJe39ygWgQ7dKCjsuc/OIB7kDTRQPCcf7YvsT9XM3M+ATyU+nmCoHxfUybLtskcT/fMMlR8VADAoNmK3xVcHwEX/zd37pRuH0+8LfC9Cz2enkEW+nLmIG3j16Pw/4LL0SCFnnS+c+LJOEYwwyqvq/wLfjoAzr9vCXaBzni8M8b6aYniMBmu4CKz5z8wgCdH0nD+KU3nEqlVwDxKeCcf8/jPJTtNH+IGABg064ZtRnF7BJx+rc3ZWBQ3GkVUgPrAr73Qm4zy167vhd4zAQfL0UCFnnx3wHp3HV9vrapOB8Da1XHa191BV2kV31D8SKDDB7Cjsuc/IN28IWkw/9wuT+ES6QE4db9uDygPvaZO0wcADIpEyei+B2vuHgGr598UvPiYPkWexu75Xei7BPRnm5Sj6dqKzyb4zZngw3Vi1Tr4WjicAoA3tvCDV9ZvbE52qL0WlT8VHDrQ0XjtajC6eUZSfy52sjNJERwVAHsfUJ2mz498B8ADeRgAGDTr2T63j4C1qwcrAH6DLfQvOwRk/NvHhd7etp8+aP68Zvhcd1FRYB2sfAgdwOJ7nB35zU/apbpIZ6QUGspwBxo3fOYdwL5znG7+eXAkh3uJ1ADsd0BhL9dPJWc3AMCgKc/2issm6KSlr86VL+XfWctv93moJ+u5pjr/ZgTASw//hU3v/Jfujy2/8Gewy8ebJ1a4AFbP1wM1J0h2QofAjoeQIvPWmQB0C5jj2DHO/iyHeIn0AOx3QHWbPgBgUAS0NrQT/6klN1ePgC9aJ2wyGAG7i5A9PT01v9eDlr9d68brukfMpK4OAqQexOg/bLgVMEkRgmVHeN2kVAPLQ1lndN46459uAXOcdozZf8Z2gKIA4MLVse/NHngk7aEpDgAGzVriYdZlE7SZ/vc8fQnphlSgQQn4ND09tSMLuPkduPjuwNBbq5V7UW7oVrDim2Gcr50agAtXe1bg7IgagcXd7PCHGKz/RCPf9E03CjkOGX9m+vWYIEcAwIWrYpABxSbRFJdepFoGABg0S/HOD//whDI25wfA4nmNRgXaWYRQOfTTw1asgKvBcIPME2bKvwUrWN3jSmBaAMYBYoIHiBaBnU4BR2a4+6UblRxnsgxw9gAOOKDIFD9Y4Yb3AgCAQVOVlFl0A3Cgb4Bjtku0pbrzd53GAt87PXOTE9jmr0nNvDfMlH/nLIae9TAALNkBohIa9q/ge5VLW8rwI+DcRzUSM9In3SZAUs+7LoKNv5kDuDB2QDGjnSVTvHYxfAYTAAyKCoADrkj8boa2jv41Df52CTxhF5oyfz0SWAuRv5QAzN8e0AoQCk369Sp9wiFPsz+i8V0+f3RTRyOp+/EFs/1RpJFfCRk3/mYNYHXkjOt+asz21XbW4bUrDPtpdRsADJoxgF3ew5H8P3tn09O20sXxVEHYISIOCY7kxo4TRzSKSJqyYQMLEAuEBBLQikpcCam8iCI2pRSpilqVoqpddN91r1h1xdd51t7kazyecXhJfM7YNHWAxwAAIABJREFUHgdieufoLm6re2OP7ZnfOf85c46tPstE+2W1v157NCtYlwgSjz/lB8lfd3p21N1AJTlyg+ZvKAJX3qv3x9/BANh1jwZ0i84PFZe0iIQzoBys8Zi0vuaiW/boEv8I3aYWpAF13hodLVr5vNsiCa2V5Sc0DBnA2aM9/INyGzJ0ZDlvOcsPHavstoPqv2Gpo0zOjQoACxumoXU45OgAHh0sF0ZsE04Pbgfkb0AJ7iYZZessgAQQOLwLfvEugYNIrToVHm1pkBcfNICPZ/yz49wawG63Wsmnj1NHXYtYsfvYk/lPMo+S8Vh4eeiG+zhuiTVbtkZVtTq9fToxMTe9PTtuKsW82zOLR2gYMoBXm+iMkyS39aA6frU9vTQxMT+9fTGuFiy3MUX/CicXmiMdAWBhsZrsgzoGTAAMNNjhN8wlqDk+hB9/70hwN6qU5J+m4R+FBgjvpL6r+1/cjUECSK3MwAccepCLDxbAtXPLln1ejjxyKxJKPk2cSY76m0iuIVD+XHLi6tLjjYAxH4d+65IDpOr0+rOfRjKZTKfTyaRhtDbmZqujpCUzPHPYQsNwAdz6lEc+KPLVyEX1Yv7gm+aMtULGmkxqRwfz44rlbZEik+7BIgIWFlMAj0c7ljHwCNiZ4uvAFB/bLHR8YHorwblGVSmfZjGEwPbMil9/GBp9M3/GbUbac3XJv1UxXQF9N6GPmz78BYbuNi1/MABPbe6zXw/VDJ2oZbSgElNGrW5rV4Y2MRMpEUvfLXi3BMFv65EA2PVxoLdC22xVTxd+JtM9PkuqnDZau1eqhR0cZgoNQwWwsViE/G3Jxe9oc3lDK+k9g82kS9rhPOkQ3vPhS1DuvwCwsNgAeCxuAC4CUzzzy2QfwqFtYeR8UTHHZ6ep4apU/0qfn/VJhdb8om9a/b0rALpG9L/RvG+3OLIC7vrU5a299KG/d+hEfKQQlh8GwJmvVebrIbfYkYvmxenEwTNiGxNLs1W3lbyMvRc7P61F+jKBJOjY1F0NT7fKJOiCUldFsraW20m9+8vXl3B7EejGm2kT647BEhqGCWCdJD1IoDJiS8XmeiNdvh3i7b+Vk+2JJm0SdfdqXqFFAFiYADBGRMtbGuTpKlsCdhf4QnV2bqNOJDjXiCp1obpN25jbjftzzO3G3A+lw24DTjrpKdX5rgBIjOh/E7NmIS+zHQBSL48tgVcmSXApMX6BKHK9Qyfi45VJGSw/BIBbVBxl3aJkqb8nPxjJtJ4hVk6XjJ8bS3uKjFaVIOkzuxEy9EveU0gjHTMmSdDh6Yb4OO6J3upyO43P4gxBMHiA3hUa6rED8NPVPdChI/PccvCrpxLQ/0r+Nl2foN1Swn3xwoQJAF8nyngBXDvP2wz+0gXe/H3QMtLlflVqY2nLB8F+243Zox1WeEcEQAeAixtaqUcATJXTycbnWdOiDjkjAJdfs7aBmcGl5C5Jyu/1vqET8bE9d9Hl230DeGqziL4e9xbz5umGlu57yOVK4/OV0h+v3H0vzeOng/zm45MEHZ5uiI9D0ggKJ6uVFOtSDoIPafskUGiw5o24ARiZ72Sw5mKbfQOp3Mq04lMrWwBYmAAwCuDtfgDr7BDUXeCfGXqqR5bqqlKVBqBK9ctaM3WmBMzACxUAm+utZLlHAOzehW6sLm2xuuOSFbA4x8gMYgWXbvijni5ovUPvio9p7fvVfoDSYVEBTH0Elnckk7dTTiT6LkLejnbWtLAByhHqVoH0iNG6G5ZuoI9DnRt7Zz1AMZlMfd4EqSRJHfOwHC8Ag/OdfuwjMwsBzu1ruztsx1MAWJgAMKoI998SJkjdMkg5OTIymPufSjsIzjMxxmJgjkjADHgTAbCOaGI0Cl+ZNln8l5gBeIURXLpdTz8taGXsxZdra03Z93hQVADXXn5BM6DJLVozG+TtgM8nlWlRMoBXc9jwKsP7zRv/fPHQQ74yHieAQR+nW1ByNRfoisbZJUglchauHi8At4D5Tl1d62Q10KZE7sUMMwYWABYmABx4chjn2ImE6zXoQMsmGMPwU6VITyiUgR/2GBIwaSx8sso+sJq61v+Qy8s2ngWWPUKDS7ee9NZko4wOPZVI6Suz+6F3xMIBWH+voB6KKxrWMyx9lJABzvKWbfm3xv3NP++MSP67G48DwJCPQ7/94kngY4Q6SCXX/UzHCcBTixY4WDnEYFuzeUbepACwMAHgoJMj81XFIUQJ2PZ3i9mqFGEgstKPvbVY4Z29NekvAGbq8wpaQpCcH0KzjbTzJ7aMux7SzLOSz6tP1OZMmx0DRwRwa0ZG/SMSXvmKhg4ZwBQ7+mTOdN5v/jlQh+ORAhj2cZyHqyw3QlDwBUgl0pgT2msfFoBhp5MMdjNE6xQmgQWAhcUGwEbcAaz9+cKAkG0Gm5YsVYqu9N91WPszO4xafvbMRqDKDtoao4g+yTZqhFh4b/hrnbSz/tceO/Op4hUNwOS4j4xXB5kJIBpmXyBpbviT+W8BuA6pMBRJWqjZ61BJ8h5NJ3vtY/EBsAE5nc5NF8INlkVgAWBhcQGw+TPSb98/gF0IoVU0dhaMAcxIVOw00BCUpD87eCkHu/gU3YFDA/AivKzVUN+DLL+FxXqgt587bDL3gaMBuPYPXp3YzgcTDfUz1YaPfWJPhg/A8em9GYpuoI/jPK9iSP52CewplwzvwAwJwK7LK3l18sVauMHS+S4ALCwGNvbu0dSC9kwOFEI0/t1ZqASeSSwCIyEwtBrcqRRx0g48izGdtSsCgoEe7nuQ5Te4Iqe/2WEdo44EYIZ/JAflbyKhzcNCv8QbAsMAjtp7c0gAbuwBGVjk6dZCU2QF+grhdPMhAXjq7RNvCVHZHjkJXTO3/RrzOwWAhT2o3Wc3pHsGMANCXf6GVeDChMBjWAAs4dmjqM6KFxNBAj08ACY1LJeD5yflzrYYR5kjARjdIAjDXwcMe0jlI7vwmWcX+G8CsH5Q8D5iLiTBaj8Ngb27wEMC8AdgB9ida2GJmfrWRL56AWBhDwxgtB+wsqDfyy8PCsAaesbFmZXmQriOOa4qBT+Jjgoch/yA7AC7JYRWs2EuruMUdFbACy14AEzrZ540QiwhU7uKLd1HBEwz5FCBIDghjOUittd9xZMI/TcBWPsjQwlYIT8/ltrvhMBLlXgAuASlQEudLZ44Ad3ZEAAW9rAAXkMBHHFNum8A4ynQzt/ubxoh1wHUJyZrkDdDB1oNbhbAnbALYAWnIJjui+8/y5L0KVxE4Gq80sABTAo+ysgDCkYIcoJar70/sbCClCpcJ+I/A2BgCpDEPOUgx3Vlw6v2kxB4rxEPANcvvXs+sl2crAxorALAwh7eSGs2BMARG7TdN4AZCOTZAysfVhEGSiOdavsptBog9FfDL4A4BWWg/lf2G5aAzUP/1ms5cEpKCABrHxGJQLLNgNpKZmpl8h/FkjrSAMth/UUAhnwcybZOeatqtrxOqPNnxaP0DwXAVG73tvT9xJcLT3c2ZAFgYUO27BsV28r0LvyxAjCKQBJhtcPf79RcEQW6Zx8WWg1usLBocKx9GAXJLlx/873cZhFJTOIJfzKv0JIeEQBc/qVgGn3AB1TWvi5WSdsIGS+S0g6/ViJZ0I/xGFLd++KcP++0eS9d/u4VYpx1YNaIA4Cn3nqUEFIQjTdRJbe2D33HAsDCHtYaZv9qdFv4MdJB4HsGMIpACiGe3es6zkBSqNBvNbg9n8qRAeNQEEuqlu3Cbn9600fM9+AKf6aWMNcjAoAxgUIK8ICI9lyqH/xRi6zOwJwnkZBzwNuPD8BQCla0xsbaO68ITfSfOAAY8DbI527wjrX2L5RCIgAs7IFn+3NkMR/pmJHant8zgHEE8mpwDgNhEdpZg8w+XbeOBY289E+MIZtSQAiS+QWnYBGAb/Hk39T30G+AG8CoAh2EEPrYh8XLgtuxGW+1QRwjje+T/ysiYDoFpP4tW876JOgUcBzA/i96GAAGvA2ymcF/UoOG+wLAwoY8242XXzCQRetRnpss2CN8hlbgvzM5tOf4FiPnrDTeIQyU+xcX8PjH9ZmlGt/zWtmxwRDYG4Lg6U12cZln3z63hvwgP4Czr8AUOV9CdBOvzmmvRrxVVIQ0LMjnfJwRcANQoCMFwOAUAJ7NMADs9TaiBcCIiygALOxhDY0koyam5Cb/15E7fGZ34FDwNkzBosAosxIPgWkQmmKuBjc5ywucXgvJR0ew2hOCpBIaUmGKBMB8+39YCMwPYKJ/yLAvwyYESbz6WHhCOmlIfgIKVxoW8TnznpJPnYtH1w0ps6B4Y8LOViPKxXXvLjDZav85fAB7HW7if0UJEUC3UwBY2MMa4yBwtKggt3Y5zmkmHAHfBTBtxgeHyVVuWQoLgaXeupzOEo7qq9xNehKJ4yqG/17MZF+YWGmK4jLXmYxEBUlA4wUw+c/yiIpRZRFC176+pYlXAfBLKn7aVahZQHjARa58PgQAkyngiQn5JJBbq/0BqmH1S2FDADBVVAY42eiEA+aRALCwh7XMoYKm344bUX45nRzjMSNpbCjwGn+zUQdFMddBYARZKvNKxdDWswYRBI5ISPUSbp+8tITlNpPw7I5n86OA/XdV3gTYFXhPmx/ABrxDQJyJEqY9Z0v1H39UEvwye6bfZMY5/3TU0IqrM4Tz/7N3Nb1NZFnUrURUGabtUhJb8sTOh52MZXXSgQ0bekHUCxQJJEiisEBCAtJKR9nMNBkJIRDQSk8vsmcNymr+xPwYb/w3pl45H3a9e6qe3331qki/u078VVX3vHvuuee25ZzPdD63DsCgkF/k2deVZuSjmCctJcwBgCNGRTptzN3i/M5UDnEA7MJyHAEwEQ5Qh5U8PlHzZZ3O8SOJALWAfQYElklnISIHNTEEruvncdA2jerv4yC1aRCdPXQpixZtCa5NQQe3a6S43sf+as3WyebZjaHwqq8Ev167+vtcb/JsGZWO8c/FNF7NoQJeW5Rb2cyakKRXZCrMOgBTjEr8sdDLM74DYBf5Pu4tPNNCr+NWf229KC1sz4Mcf1nuEIwUalgxz/9UDlrdRO6IDAYQw/8YaiXx3/rmoc335JFCG4Cb70lexSMrzUmEV0OzJ8FP++3O6/uNWxrJkui6sI1X7QOwsNCRa1XNHkTSTShTYTkAsHzTi9NGi/dTE7WHA2AXth/3j0iFJY+/5pWApCQJaVjeXjnUXh0bisbKcaZwHPprjJ+EAGXBO3uskV9cG4DBjg9JzXaOJRMIr4SQetob+PX1B8dTej+2OB14hbXCUkU34hjBHVy4uAllfn681MyBgpZvevZpI3yO5ROvA2AXliNS38Lx10oOCQiUeKM04QKoQX1WJYOL0NGh6DLiv5nld6nyAq0vGK2/icqHffZAPXVNAE74K5lUKTcbnycRXoV/480vfvnl9FZQ0kuVwQuidizMQmBVdJMfAc9EJ5vQhEgPlX0AJm56n09aEFnEAbALyxGAtG+Ag9aMLbrEC9NLLy3Bc91DMLCP9AgjDVbanJROYGAfGZJBsnXCMGGCWCZpf20Abn0lNXKxpHkhvKoqCq+E7tnr+/N7D/7R4uTeNbmcitieQiReNXSj/4rkF/g/Tvzd7QOwfNOzH/US2ShxAOzCdiA9U1/PaYgdxHxjbFQkTABvFKDKzCN5nl5G0A3XoCwesxztGKaPFd83Us8I04PaiT5fQYvh9SvgH4GqenHsMwrhVVT8qgmvvEh49eXxxjKHmCEbisWRQSsDMNEV5R+YKV5WogfsA7B8PjQxuk3UHg6AXdgObMXhDRZf2Oegl7fT+ocRCTxNT7m8ZtWgZVjcjqQXoNLmt+DANxfYeqFHTyr+v+eclo6oL67dA278SP6MV59RCK9mGr/tTCi8mhfCq2a5xMmR5EGnODJoVQCWHwGPxYHgdCDJoG0DMHXF2HTTxW3qOQB2kWtQavxLDpq3klDvCA5GfEfO4YEKTuq9OUT2qyIAkcBhFbUVcCmxFAIcsrs8/hEM7uoCMGhreCOvt7R6vP2m/sFPtHseE175s9X1uY0pA2Jl4qBTHBWWIroRj4CZQwTB9saLzRwAmHg/drkf3vTP4mpKB8AurMfRIuSgmc52WrEGlMijU0grNUACM4wwwCMpu/WjEp1tpySSkZ88YATZXZ6MCACrNgDT12d4SAii4vdKeKVa/C7+6/7pLV7xO3LQSXc8LjgAyz/xlUjC7CnQi98GOQAwYd/Nc70u0RMgDoBdFKXk7OsufOPFEt0CHjvfiy5sqlbKHA6N5Wfcqu2zhTxHqYU9tcvHSAl3k7Li0AXgykoVm4mWK8u9uWcTCa8G/g0hvFoydIsR1aMYNGsU5HlUQrfKEwq4DAjJKiuUMqmVOwBLC6z4I1eEnsIBsAvrgewn2NvNNB+KNhI4n16d0uuIBD7hkXDQZuqShUsCaV5XakiAp4FrA/7NY97ujHlzAAyuT/QLBY1Pm5fFr9rUUbsmpo6MtWhJvt0bGEjoFgGYZIpNgAepTBofBC4CAE+b4NvlH9EBsAvrAd39cymBwSLZsfoSd2G5ZQxykLh6MLMEYIXqNoDDwtztkTfMATC4PoJHOHq/U1MTXg39JoXwavNJw6xNFVHu56F34AHwfBayJPKEFyeW7Kug0z+TA2AX32w0BAeNusCWS+Boz6C+DIr7+KS/sgpNzQBgLwXdKqBPzK0IrADwYLq2V51VFV5d2D1vLJguTYnVjznN3JmsgEd1CkZPgdN5AzBdlfMb3vIpxgGwC/uBddD2S2DBQPtpPhMJMNnKEYC5M1Aq6BbQ7dVvA4D7EaOsYfdsOCVGCd0rwsydUQCeva4ArNCX1j6IOQB2kXusdRAHHealVz2bH6V3prASqKAVcJtHYl57ABbAKiJ7u+dUzkfucxSFg3YATFTAaobRk9NtB1UHwC7yD7SKNspLbZt5qflLnXSmHt99UlQAZouw0BDUNQHgvhL8GrB7TotIayeVwK/WCvAsOgC2B8CyWNABsIscItitIVJQbBiwRs3BbQje+O4TIJXKm4I20QOevh494Pl+usQ5YeqIbfecmnnlSWC/X31fgJWEDoAtUtBOhOWiENH4+gGXwLN3u7Y+R+UTvZQ+ZvMo927kpUV6kWCyYaECvjYqaHB9FO2ea1y75/Qgmi5Dm5BvGYD/YiKsDfaXdQDsohix9J8q0kH3vUH90Yylz9H6+B3tBTW+6S9DIw56O/KYEXVWFXDSjO+3NQeMro+i3fMTrt1zekyRHHQRZFicCtiImdfaohtDcuHCbnTBIlxxq3uD57cDSwUwmEiOGS0KHz76z7J3wgKmUUMjBKYVJaxuL8E1oUrmyNXByYNjRelNWvz6l3bPS9nfadTaKz8sIfMvgRXRTd4IYsqIg6J7x03Or5ERhxtDclGImHkEZVhiduSpHSV0AxTAcZPnEKmyWAiIdhLE6D3cgWautAOLGEeTTZIX9A/F8YIG18ee3bMWB12IEljVinIlKyvK3dQXzgeAPfNWlLLvnQNgF/lE79XA80F6FBMaNkqD5m9VUAB7g/XTZJrsogxkSra34Atf7V5BHU42K4aQPXzhk6ttSGhZlF+cbUjo+iTbPXceHBuze04NSvjv92fzL4FZyxg2DDyEcmmd5TIGcehUAGBi+TF7fRX1NRwAu8irBN6HrKEoDf5tQSC6gQ4B4QngwULyiTjeqtU8/h+gfUQjHVa0NVDsY2XlBLSZecT1B6+CYG4T2DK4DxiW6Wl2z4G9+z3Ylel+cZ/v5l0CK6JbObt1hLLHZWzLiEkAJsR/bh2hi79gdLEQ2lIbeHUb0eBhYhxNLXhgdnrQWTObfS5F2PebVwQrQmnORsDoW/npew6BTjv8jWqH+umXZr+1Abi180GpCZyd3XNqNL7KP7bf9790c34O1dCN2lztjZrFGX332HyTbQCmZBdGJGcN6Td0AOwip4iE0MA+QSDwndsZ1waVz3Av8ZgLB/1AUtNKGhAINjNOD2oja5YEwZq8Mkm/Ck2t6zEBzuHkaFjXr4DB9SGqX2H3/NiK8Cp2v78n/Fe9wb41xT8TgClWlu/lRZ0CpYOlWQCeVwBgoiznPmw0C+IA2EVe0dj5DpXAAoFn725k+/4P13EXekyCVUryOuQRU71FZIR5xe+GOeoNtMt8yDilzPxZV6isgxVUf8/endLMHejkod0DhlZYtN1z047wajzWXslXMTxorm/9/VugoAnZOrsBA06X0oSbOQAWr9RWAGCyMc3ueBMPnANgF3lFsNvpw8adlzECl0sb72b79ChUeNi9E5MXU1MkBnbaREaY9AFktAsG2rCiVa0P/7j8JgROAP716fct8uShDcDo+sTtnqvZ2T2np19K+C90WPkuRVJFN5mzEA2YU+7bE70IiVaiP6JO/yW86b9+UABg4tQ51hXSC2L1uANgF7nFaiQMRZaUQ0esclZZp7s53wcb2gmPCbHCGLDAnEmSm0AFFcsusP72BE5rx/GiggtYmLLAyLbfr7/UzUig+NYGYHR9xu2ea1/uny4HpbwSXo8ogcMbqPoyVxJaFYCJFWa+gdGchU2CEh4fA1ZrFKsCsCzXo0CQqsvZu08asubCAbCL/KIHSeBhatr/IyMEDvH3f/WEhUzxncRlap2NgZ02xx30qmPyFqiVZsG/6HORrxorbFbhKUHXShEW37oAjK/PkHu+tHteyvN2p0tgoTfMUwmtCsCEawu/CUyB0tBgJhsADk9qNUl9L4MgderkN4HFKdFzAOyiMLF0sJgwPRKmpvrPvWxyToS/sAFNmCxCFPIGe9pE7PI2hMCRXYjD8zgAaoYOuvvMTwDWclLpw4X/4IT+QtoVMLw+51pjG3bPaiWwT9nOZKt2qLydMgDAQsIrm2n+zuTPiTshvP+kPdeUKllrDp2iXigQlO8nruJC/b1duLAUrZ/amIQWqWk+mz7wOf56igWweHgACokSWFsMHO0ihvLm9IIxsqw+0tTwIBcST+osHwF6V7/6X91s0xZc2gAMr4+ogC/tnnMOavbdixwpu1km4Yd3kpgk1Tlg4iYMb7/aAY9UmJHOoOH9V5cOwIQqWc+HizqoUSBIEu4swSX9FDsAdpFnbCSQ0EIK3c9EiZWEv2K8htgyUL4N9MpiratmmQ45YNECXlAplTnbk7v/BXPYYVYd7ezhJrCo/vWmtRH1rg/A6PoMheobeQmv4r85Nfse9VoyzMJv3/n1BARWroCJm9DnTaKLsvoNwcqOjuBdPCrE9K6OKplqVVAgSIgK2PU+pblwAOyisCR0NDniP71tOnkefdxPwl//3RqRpRpoe4Q+Bh6fge/ux8egogFCAP+a25Nn5vYHiAHojOeZmXsQ/vWsFFEBrA/ACdfH69fF2l2NJDezbJwMPqgRs+++MH5bzuoRe/tu1hskILAyABM3YcTAcOAjomHk+69VSgdgLR+uyueqEgiSogJvUOX485GnaAfALnKNmz9DMfK5fHWwfrBq7v3KpeDhu7YP+WdR/92nEB+ikEgYWnVg69c2fsXT9IP7BQbqbU8+xjacsfKbFI9cwL8OBRkcdmjqnVEBJ16fO1oUxer2vV5g+HZv/UBd8/AB2MsKgQX++kkIrD5kS9yEPlMaLNMwMv1zwQh7BhahLFBHPxIEV+X9kUzr7t6Zivu5CxdWo3d3NqENHCHw3iODdn3Ln9Z9z8O7EPvt1+RDhgddNDGw8rkGQVUi9pb/AGy17vbkRgL6x+Ydz6tLj9bJrU/OA3bRDioOAAeQgxa9Ow2QqHzqtJ/urhq+3bf25HNPZPyWEQIP8TcJgdUBmBAmiQbMkb6RCKVDIOdtxcok34ARa6+jCoLEZHkWQwcOgF3kG8HJOuaDhwjsV/+5YaQUCW/07lz4CPpJyuvnb+l/jbx8PRoD9+9NnqgnMeIawj+2zZ44K8z8WUUtU6LTJdwofXRe+aml9d6eWQBOOCUIQmGlond9OqaL4EiHRQixpiMENp6Jh/g7nCgACKwOwBQm8cbwCB0CQf+U6BkojbGgSUCQ2B8p5HLaXeCNMyXrGRcu7MbSwV7CNPBQDD27ftAy4Z/QfLiz7yfgb/iEVB8DXqsJdbZhdutMyMSWS90dUPl7BAQKAx/YtNYYYwkOn6PfXCyCkmqxow6G69qEfbHgEC6i5FTAiacEf9L90pFRmjj7zZsugrt/I677OQKvGk7FlUPh9uad19gAgSfweVw7o3Yad7TXplA6BKDrktcY6IwFdZ/5nioNPCVzRBp3ewr2OwD+P3vX19LIksVbJliVrKRD5w/0JG2b1mwIN5rkxZfxQfFhCYxwNxEHVhBGc1GZF3UcEFlRQceHfZ/3i09+if0W8wX6JV9jq6o7iTF1qqs67V4H+sCFmcFrdfWf+p3fOb9zTmx/uVW28q5glhw9PBC21xpTV3Fmqg8HGAtaf7AANOji1qHMJT3jlpVOIVqI/BNSnxEIzE2cftxW/qO22YplLJdg1AEl3MXzia28W3Ng50NxbtUlawEaPQCDXkKI+dKDRmn0zYuYBGfueP4HQ+DFrSibUia10vHywNsUILACAAMzjVdDZojef3zkxeP1SQ0GbxREiLKg0kNBnoWWvus8udxyI+Re9+Qq32OL7f9tpliI5YWhneXv5nQHYeq2WxClfxmQti7B/7+8WYQxsN9SgKGkZoKNQCgB3uF85LxW/mFbhrHAJKjp/jpJQNLbtguBm9LWCbJRYoFeA4DnN8HpkoS57CsQ2VGjtFcgwca+zrmX7Ebq91HOJkydPY6yLTACKwBwZvI18EQI4dLX1ZvsJMcEan0mR0GEaMQKzP8GQLB6Melwh0m5QHuNATi2N2K11SwSIjA9srHe3bbCQ7BxvmFfY+EyVAoj6m3bBimwGgwR/KVpUOzKx4CBPoajlmEqCOwlBoGQsmvzijusEwd0PhLyW6fI1hM0P5sKgDOQl+A9WflhXbPvAAAdr0lEQVTY4VijtOhJsMkNJ1CExD+7jchGI1U79nO1A4jAKqOGzO4kjNB7G0qaVMlx+Cg3/KNxx1cqa6KganoABHlfHF0zTOuRMt2rGzPg2N6mNVazQg7szZLL2idhIJiOnis3cnsOdoW5ZnIY9HIiQQlMsZhYWx6Bq//VwRAwJcBcFl4DKfDgaFXCXzURuEeBp3U+xC1ApwXgAC/hsSmNwM8ataBXIMGNT7wyOC/V0lqKRgyd9tQOz1aBEFgFgHlhWRY3aqtjSImO48Zy4R/+uCvFNiBe9ZsCC/3CcbhpEFpd85i+XQRe+xiAY3sDlrlr9QM4sMtmqRMINhc0BT0W/cGFyvnGY5HCrzjO7WZPxSjWXgQx0ENguXogYSMuxCfAIgrMjtbeiVxyqnTcAuMA1Ee3+d0NQHAbbL009c6nBmBGgYH21gSB977Jgej7y6PxRi1Rk+AkX/jPENiruZv6RLZ+LOOXKI/4jprSsF1OK6+Qs7v5WjwMvf28MgBFAVi1e+0qgSDH4UYs56262fdwxUMMwLG9CQRuBiMwYhCc717V5ylGJANfW/YTGcP8cbRI2G8CI+HMdnJe/TtAKyugwAyG9vYlVDSEm/zEMP6S3wJ83zVB3RK5Nc7qnQT+p34cCG40WAVNKDA8vJlt/VtQaiw5iWwRAzDQ5mIkM5Z5PJpx/KJRS/QkuPTN5t8HulBvrj3teML05ZHNUTvwEVgJgBd4FDjM7O7MMc8JAcM//HFXSp0xUp0ePwoMgyAv5xRmswLNRQzAsf0yCMwgGGcLj5vbpj/ZBkJh/9/ThnnX2dVnPPYrjHHTQNrHIHe6fSBoXU0Oz3ywVpvHTcYFuzmwDkoHCJ4fvjzYDwpDZxodURk0OWz2oHtQCXA+7M1aWhHZIgdg1uYCgQgs83jeU6X8JHZFTIIrW3wNgPccCQmeJhOcNM8OHG6Ug73lhZwRHoCBbtbKtNDHX+nwj6aV6dxgFL4TW+nMVmahXIdbfbOinE8MwLH9QgjsTVbHxfzT/aFZMTJDuH1mQxpgVMzbzq5dxORQxkj4mz0xbyD++uNskICGLn+jWm3wizLOudxkLJ8KTjf0SkhFDUt+a5fhnvta2rptFWEdmhD9CbgtCwY40q1/OgS3nqQ1YLkdsQY9AgAus36UsI/itA7NpAb2ZNSSleMbHU86a0MSPB/R227e94CuLlRu2PszvNzQ3wLCgBfi7r3QGaoBsEeB0VSgxAqkeB877Rp6CUYNdO4wZcn0s1L1+eid59UOqSKwCH9jAI7t10Jgl4EpxkV95SS3VLdSRin94qzKpI1yyqpv5+ZWdIa+AewXOJiUMdCjL/mTbTb2Pfmyuzv5z6jlHh0sYqCEScKXkWmKWpYwmdriZns+M7E6+xuB3xsbOJkl0N8j4Cho62n+4iXr9qmH3aAHMS0Aa7VP2MXia7zjXKN/h+bPNxaz0PPxSPB/Inrbq2tQNRbCCYR9uaHayUw9iNEWEP81t9eNKULQxHXgigEYKN1JklEtdXbAucsIGETmW50nwCBPWwoL+RHvQBD0dBdcd6OdkXs6Is1FDMCx/XoI7CeD+3hmVrd3T3L725/NSspKDaz++Z+5ztyFrRdnfPQNpNUMf9f/JnWNO6L5iXQxxz75XjUWRuR88DFb5x1PCiZsBLLxLoCAI1GtFnIWN5tWKfNy8bRh/rixoZN5pGkROSHmb/Dw5uHWD00jPQpLDBavnt0E1YBFA8Ci6Vqcaxy/Q7cbi7BSHnltya9KEb3toPAfDeWGlqralnkQ4BYYu9Zz77SpABj4AmiEQGpqCmsHa3M/dP4gsoG940zypTt1/lUPXDJ9LBh7KgLBegvabOuzlFxdrLmIATi2N4jAwRhMYZV2psN4pljQ8ysrK7tzzMifbF2fZdjrkh8JRt8h/sqVfxhbOliPMwRB/YJGyMs+N88QSl6x2g9duyjMRXt56FowARf0zU64qGh395tmZRAZyKRLZRaL12eE9Je19f2HsKqjvSzsGcpwQ3/qfB5b3KiY252Lwkxg+DkSAPama4larQyvcfB4RncoL1TKMwHs16h6VSWFpXc+BB+apaQmw4PZT5SGHgSC8bdjatMBMJSGoe7J4ocgHQC5UANqB0sVWIIBg6wQiRO1xk63EXCPjNvlfjgWCjh0siNiAjQXMQDH9sYQ+FNW5pwexGtxgp0Efdy/vp5hdk3+zNgKSmCEpH6PJ+Jdly2/rJ44ohN+kKXWV046hJvXUxWzubSeO9q1Z7MYiTkgvQ7xiFN/coWoXDpBZWr2xUnuaolGBupL2w+dQSweCxt+uolTMZdIH9p9MYTTwARLDrDFK+bnpathIgBLPIrpAZgGoQNme3jXeEMfzxcrNXGHhO7RZYRvu4/ACFb8609bX6zSKEYOg69WqtQenqgHAYn9IfxVBmDIC6SXXBToANhSyXQ198htB+spEERfIetEzalC7mdXaf0fjGLVh73QLNRac4DN4l73bl7sE6WEmosYgGN7c9ZYdbDUUT0EYUaGEwyJKeclhtm/IunfQT6Qx3X59geNlriUZhghJ9xctyklz+tFB2M3AH69SRAB1+EXsAR0LPHi8ywyYOt6YRiLn1YFXvkgDIG7LxdfyUstHikAZ5p74ufz7PHk7Yk7JIxt7MjIBNQQGK5H8zwFu7v/xZovjSLmPhI/Fxymy1btj6NFoQfBwjwUf5NTA7B/h/lZ8rzfKyfJRaSF6tlTjxsLkXAAgSJAXzee5onr6D8YH31dXTgQbABy7YHighuiYPWP5YHg0o0BOLZfxWprel/ytJ5AYhXYHcPf1t8VKi/p+ZMIYOlehJySc2o+XUdBZc5ucSMwwpkKwkAWlUsgurq/uEQsnuHvznpgfpORHySRHPAX7w8Wl3wYEQAw8VHy4ulao2tUuEOUaeV/n4/2ZW+sFgV03YulZAv208bVF6o2nHSPWHKjvt3p2gXH9/DgKiw3z8NfdQDWjH3u9JRhjn3b9OoTXlQmLJQJ/BYgKQB1gwMcQKAVLLmDuPfn9ypv0QxtgZd97tNzDgkhCC7wwz5ooLhop0ra5LrJknVH8wEvnghCLx9QDMCxvS2rfrBduURwBOa3/1Obaga2UeCQ88SIkgc6Am72VGJoHguBIxl/BCPpxelvlIKXy08SUqrR4oxtKjzJKABYs+4DfZQQj4cs2LGiftlrmzp15oSulEsl/yyn8LnOtIbzBjEqN6yYze3cRtfWi1nyOiZEHgR9aDu/m/xYqSoAaxY4PcXrlfP0oWnOj/kLtCbwx8aFfg1RQlpJHuQAQn1w6Ft2rdNFy2OLLhgEBX3dY/gwMBj2YacU8Teu6lb5eSVGplRmio9JNZz0KMTYYvvLLPVtGSOFMPRURr4h5zS4/vfFJ7ml92Uz1QpEvN+SGlob1Dc7nBvS16XgRVqpHs4iAWBBiU/4W0Tek6/V6F/26n1e3CHVC2cMw/q7c3M3GzliN0xxaOuzDgFfH32RKC/hPq7PaxEBMJ2eAhZReZHzp419KkFgZqXq27mjC5EUQM6/AVrBerpxtugVWdQriLCs9rqnq0uMT6RADlZjoZDL6ysunILd7Rx+NAdVGFbzqtMdKj7Ge3GjnzhmwLG9cSs1Vx38iqf8uJSi8LWmfIXmfSFiBEZyjUBeBYFZNG22I6fvfV0EjgaAo/dRyLEvFZ5QN2t/J0j5jwY5BYJsVGtYnJ2dLTqe4pBFzwPlhizMA6VZwgCwJ4SAk9e0UL+QX1nxShO6K3niKIikAJL+jaAVrL8olR50h4tOZsWxm22d/uyrgaCgYsxPExQ934jaBV03y8sHYBcfbPb6MQDH9sbtfW3N7r86CWYeqbuTC8NrqhEjsAr+Ro0vDH+LX2XHGWaay6+HwNEAcDLaO8Ru0Cvhr6aVD2UCPoOI+ehM9xSHWCq5Qdjh6WVGixCAkyI/jOkdyF3rXzteaQKrCRSoIKT9m5qgG9tw0exw0Yk1aan7/9i7ltbGtSTswcaSYiL5ERl0LVl+dNsY2+POJht74ZCFCXSD3ffSFzIQSKZNbtOb25MEhtAwd0z3zCL7uw70alb5T974b8x5yPJLtnSOJLvd1LcLAddRqVRfVZ06p26OcoxZ6MZRMdZZDBob0ahIcNwPwPdmDl+okAEDvn8Y981M2EkwqR8dD3j6aiTCwDFxN/zr0j7LU3/OnjY8C9fxFoHfV7OGNgLKgDcf8eHh31JY/BuJFF6d5LwqVFiEx10WYWL2GhuMmYOA3SohVheAfTZhY6Dgvb5Ab2MTGISu9Dn2qm9YCdjLw9pineSOp5fsaFcKEDBgD1A4ryvh7gTjX89+epC5lie5b94xN4KxbEQjfgksAyfHU6oMTkD3W4UWHLpBAybgIGMUFKDEb2vh2fpPtbNyaAUfckHpcdeIBEzA3uaXeYgUBKb6vuZyCn+jUNLn+JhmzoA9lX02h0UCHbaWfAEEDNgPaNfhJcF070a87Ptoq8GbdzExGAePEqwHto+wdfJeDMRlYw2rb9nudyK+l5/drJ6ZUDNg+4hPQAqqhmrrBzfHm28J9RVmKrcPhUjgBMxwb12Q9X3XU/hudaZI+ijOToKFG19lH3IK7Pi1JAMBA/YEkn5eN0UhFLck0PT3dcLPAl/eN8UAkiyBL8GqflX8Z+B0G/xyyHq8Bt9Yxs1utOfrODYRQiVgcsTHr4aETed3AoRsFXyEwO1czBwPNZdqDh8BYwYWBd8fAL4/i6G+L79wP4W/iX9lPgKOFHyVfQQxNvlWKUSAgAF7RMHGza9xUYgFTsHksGKz7zer0ZED8pmjUwY0eRIs7c27se+6JSl+D4rs0mkGLnA+8iTbG6jjkAk4orXLY78EQRWUD9/YtetmadOgDr46vyCatw+623YKJwEjBma7t24NK6q9BoOi0tcqVw5s91nwEbCvcIOeAkujHwECBuwR5FoKuaVgKZg0S2bKpw9p/+trXfjcqKaNYF2uCx6KV/7qlnTG7XvObfDqV5OL/+lM+LfVlW6U4Ak48vKmKYr82wTWEOBPrwtbKfjUzsqZwNoeSDeQIMY/D1xti5+A8XEFxVcZmpxDYKwvGBwnEEiga/U5chIwCTd4Gi8t2eQUGBAwYL+Q+Hj2rrRwlt7/3i9OCyrRQJZXfXMp+iBBqxLOOeEu2fLVqIY9NOcpLOIH75tc+T/m39PqqicKgYAj8vlJ1oeGsOMs9xrbco/Rq7oqBkTBeC6WmGv2G+7RlQ8CtuswAvfHmGGvL/CcQJjrc+QlYBRv1xWOj50+Jb1sDwgYsG916CKl4EA2yMiFBhkFpQVyQMtLv6IunrMwJWR8NYKRuiWfxyaOJPe5wl9dLfCwm0BG8lQdNsPCIGASIfG28uH0t3Q8iG7P1mXtP0/K5plMHkMrfCC2dHnU0D24dl8EHCle/ZrjM0HBahBj/xSnJxAEBqYX3083mvkJGFkTe7hBn9KSDQQM2E8KxnfaxESB3y1NL60pmZ+6mhzg6qpvKAky+kx6s4J6668RTP/YKfMkTbQOf+klQdroj5qMRVOy432kRbZGwChCQmklc4Q03UA9rclbtfWCRcE+TF2w5mGWey1vpuWPgCPJWpvHBOm8RbcGsXXVl+tLhnNb5KaMWanHBwGzhhv2aYvpUwIBA/aRgvMPqZFipcGc1S78FU6QWzqtGIVgV5f+SDbvmKrk1EnGP3cNn9+edPALc9JEbzYs4fYcf9KlNG5U905vtCm3G0UOJ7ktAo4ktftmjrGCItAK7vHA2LqtYwpWuU2dXgclZrLNfiPh8eX6JOBIJH91oogsQY4wbcToPXDuvqRJ/4MnIiSi5ks9fggYhxvvPEumLR7zpy2AgAH7ScG6dl+nA0+FTdfOr/VKeKhMSRkdtfJyJGh7l6JXdXPzNLhVAqQ7dAHEAjJT0iRYPhrRb8XwrwfJ+MWr8GnKT8+kMhEwGay0jHHWK0UUGqmmdSuwwFAqOfZZH+BTKFqucdWZM3VW9sWTED51HxMMIh1U7F27zCaILYEGgD4aMZK1jofQb8r0l0dzrzJ9lB0vPS0LCeanO/Vu37pARzUsnLZIvlD9yAYAdgY9+rH9bBLHFHO/fn7uY8fp3kQsZcunAy0RjqnLxtWsSi54qRCWlKd+Qw9mNXbSFHONTSzuL5UR/QbDLsT5umdsVl3UbvhmIeCSrwwY/0iikRopGdHLUGa7VNJ7SOzEztHTy9GH1NTUPVr6zM7VUe+OqcjjpGKmDHhaOveQtwt29Gn6tUDj5inrElXZpZ6FfR6em7DWhhuCy2f+rleb/8rhHDBgX3Ng7EeN14iDs3Suits99Pbt9WRYSbnTfcwXwlueXHxoW1XytQuzFkTc+21XC4h+SdKk3XTKcTIUdq3Hns7UQdzf7N1Fg0vukHCrOOEsW7Azs7mU3ysBRyIHv5uqE5TLPkOWp2v3J3OU5qIh9cl7BTdMU4/TUYNuNynbIwtz6qiDokzWd+ugYibtUiu4n7eCDfaPvsf4u57/AFCuXj+TqMr57uVprImZPrlQvn5zqSw+rKmMoiwkuBDxbjL4cq9VXPjd5NXfFdOXbABgh5CRYxp2yiodbjabB7MMPGmdzm8rIfI9aQ+0oh6JhGroUgKzIJmAZrPw0pLI0JRS1nzqt6J6kKKRT4i2rk/KJDaxPbaT9FwWhyLFZMDCP7af1ZyzbJsbFlJ+ZwIWHAhYfl1ZgwbTU+g2pblq6HQQWHTkz9RTJyYebYfvDBOcLX1m6DnFfOohO+eIMh1VzKZdaVqiojGDw2pn9l/+NHxMBBAAzqKqVe3QSCoTxz0f8nL1evVhvzBqjWwTZGm8vSLZMnjTKYoz/MsGAHaYGyDHlDc+pDojU41j37RuPOhEzJTiilmutweP0cR2bLwQfRycPds+c7kIi52Peng7vDPwdykFrBhJNx5wbJJ1lk5CEXN01n3M68G/FRR9DNrOT44lx9VRb5HU1hDwOHNiLGsmKa+BxLhISmkoesuI6zX01Au3VMJm6sbjoH1xaCrOS7YMvZSLq3jdLYOwL4dhJf1qd5a345gh7vRdWvZf7gxbhh6UimhU5WB2U6ZvOZR6JIenZQ868417HG+vShZFEmQfoc/cKdjxKxsA2LVjQp4parQqqbOLw0NTVfB48oyNUjweV1Tz8LDe6Q/ODYt8pS0trVA0Wt32xYgsy14VcpHIRx4+d/pfjKieDG0Bibz2YXh2gpSSnZdOFIJCke65UdTDEl5IoCcnstH7mD13VjVH9f4XbSkGSr5QnQm4Huq5W0xplVT9+VBV561mRUPSd2PqBWTqd128ZGJSs7dKjCpLDP2sX3mk5LvzhaMvszFIXYwOyWfpZP/5AIsLNKpaNTtidYTpw9SHHqXhkTp7K8SQ0HPiIDsZAQB+XBLGqXA0qn2odFOpdt3GxW0qlepWvmjRKOLeXXwEko585mOl20917DW1U/0KCgaitPIWpleQ9Tzy2JVhKlW/sMR3Uv1upWaEqw6JPDmSfV7pp85mzz0kkuXlp5YHyg4IeBq9RbUvV/05q9mKhnxYOrYoFHEOUnNvtV4/SyHtYkPPWwVd6ftYbwEr+MPANoMV+w/8g1s2OyStFijTr486qeTOTHIXvxESZMPOLuBHJ2Fc0tETCfTFz4D+1O26jrSrheFlLaxJTm5jQfTnk8vSdXkL6pjKTuDIaEnysuD0m7gjAZc60e28HjmxAw3xrdha0k9yYdHSi7s1dBcFF+bMIFT7dzS7LdZ1seSoq8EDAD8iDUvs/9lmeLCTJTnLkXYm20ny6lkQntMv+6ihoC1dkvZltSGu1OGnd/exSUC+AADge8bL30rOBNxPgHIAAAAAAAirQGD8/C9HAlYGBVAPAAAAAAChEfBfJw5XGIhjtQKnMgAAAAAACAvJV+ok5nQPh/kIygEAAAAAICyk/5sdiw53+E1GBvSPAgAAAACwEXL+gJcs1/VghXwPBwAAAAAAe4+C9u/T33nn5Wr/dNoCFsa5NjRBAwAAAADgDHzrb7E2/NnMmFd8LVPyn4pzD5bS1UG/AAAAAACsSX4P7t5+y2bEcanOlwLnT0tOW8CxiXmeBPUCAAAAAOCU/Ka1P/8wc2QS24QzBa6VHSvQpAcLAAAAAADACuRi7ehvyl9EMnNcHGdOqhw/gu+hdBgjKYxLt9CDBQAAAADACnDjVRlPQEf0iwlTmCjXaY4E+Bv6Bact4OwQtoABAAAAAFiElK8N/6eS2rNosacoTJqvkkElwLGJeZcEPQMAAAAAMAf94O70WxYlvzFxLnmlRWjG08B335x2gFFCLT7BFjAAAAAAAPPQ/vGHWbKSX2Ghb+r91wM2BtZ+c2qBxmSe6xVB0wAAAPB/9u5mp40rDANwIizO2PzYsg0SsieDoQGhkAIbNnRBlEUUqZEaWpFFJKTmRxHqpk2CVEWpkkXaLnITVF3lgnoD3vg2OmOHUILH2EA21fNssGVmFmfz6vvmm3PgWLWe1HqDV5+nZugkByPFZvXPvu8Ap2HemXEUEgCccDdpF6J+uZlWxLujJHBlf68T+hXA2UtIcxYaAP6r9HP/vnHIauAsgYfsQlf2b2b5G/p2oOv2oQSAE6Z/SNohZ3SqMHwC5+dvKHQW16wzAJwU55TARwk81PxyMzd/03vbhQMATteu7xbbfWenel3o5PflK4OL4PTH+Pnj6NM7xKfuYgQLAE67drvRvwTuJnD0z+TL6oAITn+YX7uVdPLyN2pHh0awAOC0lZv9x5d7CRxqj+8tTxfz0vfK/PLzxwu59W96i/K2AhgATms+Kuc0obsJ3I6e/PXHcrMbwcViL4mLHz9UqsvPP5Sjdk6Adwvg1wpgAOhn7kY2h5VXwqZF8Jvyh3s/xdXKiasqzWtz73Yelt9En+2ideId4HayP22FAaCfu7lN6N6WHCFEjeT7+lercanUqlarrVKpFK//duth0oi6pxfmXmoEGgByTT9LBiVwFsHtqDZeTn6dfLtTr9d33k4+/HpmdiHqZvOg6zobrywvAOS4vvUk7zHwx1ZyVMhOCY6uLjTGx8cbV6++iTrZBh7RgKuy/T3KDgIGgHzLk7V2NCCBu3GahvCnh72hkG0hPeiK0G1Am8ACgAFePYgGNZM/hfCxs/43C/SNFSsLAANU1jfyNpM8l2wjy/bfSyagAeCMBB44Cn2e/E22PQAGgDM0D3Y7hShcVv6GdnkntqoAcJbWpSVwt/4t7xjAAoChEvhm/qbOI5G/ADC8ZncSK1x0FCu7RZLmb9GKAsAwKusb3a0lw0Xaz1n+7m17/gsAw1vbbESFCw1DZwm+cX/CUgLACFZuJ+dvQ3fL32j8l2/nLSQAjCR+tNcJ55yGDqEQOrv1VU9/AWBU1fUHjYGHDA4avgqN10vXrCEAjK6ysrVXyyI4jNh8DqG2992q7ScB4Hxa6zeSqBfBYcjecyiEsJC8eNXUfgaAcxfB8bPDcloFZ2cOnpnBvWOBo0byYikWvwBwEdNzB5vJQtQOg8/9/XhMcCca37uzFOs+A8BFNeMfb+/OZhkcCt0UDqcPB87Ctx3VGsnh07WW+AWACyumVXBr9eCbxXKjFnWyTnQhzeFCT/Y3ZBnciRrlxc36y9izXwC4xDJ47P39rc2pmdlGLY3h41eT0s+1hcbsTHJ4Z3stnqhYKQC4XPOtsbn9p1s3NqemkpkjydTU5outp0vv49a8JQKAL2O6OTEWl+KXS0dW0m9jE02PfQHgiykePd+tTB85/s3yAMCXjeFi7jcAAAAAAAAAAAAAAAAAAAAAAAAAAAAAAAAAAAAAAAAAAAAAAAAAAAAAAAAAAAAAAAAAAAAAAAAAAAAAAAAAAAAAAAAAAAAAAAAAAAAAAAAAAAAAAAAAAAAAAAAAAAAAAAAAAAAAAAAAAAAAAAAAAAAAAAAAAAAAAAAAAAAAAAAAAAAAAAAAAAAAAAAAAAAAAAAAAAAAAAAAAAAAAAAAAAAAAAAAAAAAAAAAAAAAAAAAAAAAAAAAAAAAAAAAAAAAAAAAAAAAAAAAAAAAAAAAAAAAAAAAAAAAAAAAAAAAAAAAAAAAAAAAAAAAAAAAAAAAAAAAAAAAAAAAAAAAAAAAAAAAAAAAAAAAAAAAAAAAAAAAAAAAAAAAAAAAAAAAAAAAAAAAAAD+V/4dAD4F+hH+Pex7AAAAAElFTkSuQmCC;" vertex="1" parent="1">
                    <mxGeometry x="470" y="108.52" width="128" height="82.96" as="geometry"/>
                </mxCell>
                <mxCell id="49" value="" style="rounded=1;whiteSpace=wrap;html=1;labelBackgroundColor=none;fontColor=#B3B3B3;fillColor=none;" vertex="1" parent="1">
                    <mxGeometry x="404" y="480" width="260" height="168.25" as="geometry"/>
                </mxCell>
                <mxCell id="51" value="" style="html=1;verticalLabelPosition=bottom;align=center;labelBackgroundColor=#ffffff;verticalAlign=top;strokeWidth=2;strokeColor=#0080F0;shadow=0;dashed=0;shape=mxgraph.ios7.icons.cloud;fillColor=none;" vertex="1" parent="1">
                    <mxGeometry x="930" y="508.25" width="140" height="81.75" as="geometry"/>
                </mxCell>
                <mxCell id="52" value="Virtual&#10;Private Cloud" style="sketch=0;html=1;fillColor=#5184F3;strokeColor=none;verticalAlign=top;labelPosition=center;verticalLabelPosition=bottom;align=center;spacingTop=-6;fontSize=11;fontStyle=1;fontColor=#999999;shape=mxgraph.gcp2.hexIcon;prIcon=virtual_private_cloud" vertex="1" parent="1">
                    <mxGeometry x="370" y="460" width="66" height="58.5" as="geometry"/>
                </mxCell>
                <mxCell id="53" value="Cloudflare" style="text;html=1;align=center;verticalAlign=middle;resizable=0;points=[];autosize=1;strokeColor=none;fillColor=none;fontColor=#B3B3B3;" vertex="1" parent="1">
                    <mxGeometry x="955" y="590" width="70" height="20" as="geometry"/>
                </mxCell>
                <mxCell id="55" style="edgeStyle=none;html=1;exitX=0.825;exitY=0.5;exitDx=0;exitDy=0;exitPerimeter=0;entryX=0.004;entryY=0.745;entryDx=0;entryDy=0;entryPerimeter=0;fontFamily=Helvetica;fontSize=12;fontColor=#B3B3B3;startArrow=classic;startFill=1;" edge="1" parent="1" source="7" target="51">
                    <mxGeometry relative="1" as="geometry"/>
                </mxCell>
                <mxCell id="7" value="Strapi" style="sketch=0;html=1;fillColor=#5184F3;strokeColor=none;verticalAlign=top;labelPosition=center;verticalLabelPosition=bottom;align=center;spacingTop=-6;fontSize=11;fontStyle=1;fontColor=#999999;shape=mxgraph.gcp2.hexIcon;prIcon=compute_engine" vertex="1" parent="1">
                    <mxGeometry x="490" y="540" width="66" height="58.5" as="geometry"/>
                </mxCell>
                <mxCell id="56" value="Customer Google Project" style="text;html=1;strokeColor=none;fillColor=none;align=center;verticalAlign=middle;whiteSpace=wrap;rounded=0;labelBackgroundColor=none;fontFamily=Helvetica;fontSize=12;fontColor=#B3B3B3;" vertex="1" parent="1">
                    <mxGeometry x="493" y="493.36" width="60" height="30" as="geometry"/>
                </mxCell>
            </root>
        </mxGraphModel>
    </diagram>
</mxfile>